<svg width="29" height="28" viewBox="0 0 29 28" fill="none" xmlns="http://www.w3.org/2000/svg">
<path d="M14.5 17.5806C14.065 17.5806 13.775 17.3027 13.775 16.8858V13.8287C13.775 13.4119 14.065 13.134 14.5 13.134C16.095 13.134 17.4 11.8833 17.4 10.3548C17.4 8.82624 16.095 7.57562 14.5 7.57562C12.905 7.57562 11.6 8.82624 11.6 10.3548C11.6 10.7717 11.31 11.0496 10.875 11.0496C10.44 11.0496 10.15 10.7717 10.15 10.3548C10.15 8.06197 12.1075 6.18604 14.5 6.18604C16.8925 6.18604 18.85 8.06197 18.85 10.3548C18.85 12.4392 17.255 14.1067 15.225 14.4541V16.8858C15.225 17.3027 14.935 17.5806 14.5 17.5806Z" fill="#231F20"/>
<path d="M14.5 27.7917C6.525 27.7917 0 21.5385 0 13.8958C0 6.25313 6.525 0 14.5 0C17.7625 0 20.8075 1.04219 23.4175 2.91812C23.7075 3.12656 23.78 3.61292 23.5625 3.89083C23.345 4.16875 22.8375 4.23823 22.5475 4.02979C20.2275 2.29281 17.4 1.38958 14.5 1.38958C7.3225 1.38958 1.45 7.0174 1.45 13.8958C1.45 20.7743 7.3225 26.4021 14.5 26.4021C21.6775 26.4021 27.55 20.7743 27.55 13.8958C27.55 11.6725 26.8975 9.44917 25.7375 7.50375C25.52 7.15635 25.665 6.73948 25.955 6.53104C26.3175 6.3226 26.7525 6.46156 26.97 6.73948C28.275 8.96281 29 11.3946 29 13.8958C29 21.5385 22.475 27.7917 14.5 27.7917Z" fill="#231F20"/>
<path d="M14.5003 22.581C14.0653 22.581 13.7753 22.303 13.7753 21.8862V20.0102C13.7753 19.5933 14.0653 19.3154 14.5003 19.3154C14.9353 19.3154 15.2253 19.5933 15.2253 20.0102V21.8862C15.2253 22.303 14.9353 22.581 14.5003 22.581Z" fill="#231F20"/>
</svg>
