<svg width="30" height="30" viewBox="0 0 30 30" fill="none" xmlns="http://www.w3.org/2000/svg">
<path d="M8.57204 30.0001H3.21452C2.36228 29.9992 1.54523 29.6602 0.942606 29.0575C0.339983 28.4549 0.000992541 27.6379 0 26.7856V15.5348C0.000992541 14.6826 0.339983 13.8655 0.942606 13.2629C1.54523 12.6603 2.36228 12.3213 3.21452 12.3203H11.7866C12.6388 12.3213 13.4558 12.6603 14.0585 13.2629C14.6611 13.8655 15.0001 14.6826 15.0011 15.5348V23.5711C15.001 23.7132 14.9446 23.8494 14.8441 23.9499L8.95082 29.8432C8.85037 29.9437 8.71412 30.0001 8.57204 30.0001ZM3.21452 13.3918C2.64633 13.3924 2.10157 13.6183 1.6998 14.0201C1.29804 14.4219 1.07207 14.9666 1.07151 15.5348V26.7856C1.07207 27.3538 1.29804 27.8986 1.6998 28.3003C2.10157 28.7021 2.64633 28.9281 3.21452 28.9286H8.35024L13.9296 23.3493V15.5348C13.929 14.9666 13.703 14.4219 13.3013 14.0201C12.8995 13.6183 12.3547 13.3924 11.7866 13.3918H3.21452Z" fill="#0D1321"/>
<path d="M8.5721 29.9998C8.43001 29.9998 8.29374 29.9434 8.19326 29.8429C8.09279 29.7424 8.03635 29.6062 8.03635 29.4641V26.2496C8.03734 25.3973 8.37633 24.5803 8.97895 23.9776C9.58157 23.375 10.3986 23.036 11.2509 23.035H14.4654C14.5713 23.0351 14.6749 23.0665 14.763 23.1254C14.851 23.1842 14.9197 23.2679 14.9602 23.3658C15.0008 23.4637 15.0114 23.5714 14.9907 23.6753C14.9701 23.7792 14.9191 23.8746 14.8442 23.9496L8.95088 29.8428C8.85043 29.9433 8.71418 29.9998 8.5721 29.9998ZM11.2509 24.1065C10.6827 24.1071 10.1379 24.3331 9.73615 24.7348C9.33438 25.1366 9.10842 25.6814 9.10785 26.2496V28.1708L13.1721 24.1065H11.2509ZM5.08971 19.8205C4.50692 19.8205 3.93721 19.6477 3.45264 19.3239C2.96807 19.0001 2.59039 18.5399 2.36737 18.0015C2.14434 17.4631 2.08599 16.8706 2.19969 16.299C2.31338 15.7274 2.59402 15.2024 3.00612 14.7903C3.41821 14.3782 3.94325 14.0976 4.51485 13.9839C5.08644 13.8702 5.67891 13.9285 6.21734 14.1515C6.75576 14.3746 7.21597 14.7522 7.53975 15.2368C7.86353 15.7214 8.03635 16.2911 8.03635 16.8739C8.03535 17.6551 7.72459 18.404 7.1722 18.9564C6.61981 19.5088 5.8709 19.8195 5.08971 19.8205ZM5.08971 14.9988C4.71884 14.9988 4.3563 15.1087 4.04794 15.3148C3.73957 15.5208 3.49923 15.8137 3.35731 16.1563C3.21538 16.4989 3.17825 16.876 3.2506 17.2397C3.32295 17.6034 3.50154 17.9376 3.76379 18.1998C4.02603 18.462 4.36015 18.6406 4.72389 18.713C5.08763 18.7853 5.46465 18.7482 5.80729 18.6063C6.14992 18.4644 6.44278 18.224 6.64882 17.9157C6.85487 17.6073 6.96484 17.2448 6.96484 16.8739C6.96427 16.3767 6.76653 15.9001 6.415 15.5486C6.06347 15.1971 5.58685 14.9993 5.08971 14.9988Z" fill="#0D1321"/>
<path d="M5.35758 18.2135C5.28723 18.2135 5.21756 18.1996 5.15257 18.1727C5.08757 18.1458 5.02853 18.1063 4.97881 18.0565L3.9073 16.985C3.80971 16.884 3.75571 16.7486 3.75693 16.6081C3.75815 16.4677 3.81449 16.3333 3.91383 16.234C4.01316 16.1346 4.14753 16.0783 4.28801 16.0771C4.42848 16.0758 4.56381 16.1298 4.66485 16.2274L5.32169 16.8843L7.62435 14.1198C7.71536 14.0105 7.84605 13.9419 7.98767 13.929C8.05779 13.9226 8.12848 13.9301 8.19571 13.951C8.26294 13.9719 8.32539 14.0059 8.37949 14.0509C8.4336 14.096 8.4783 14.1513 8.51104 14.2136C8.54378 14.276 8.56392 14.3441 8.57031 14.4143C8.57671 14.4844 8.56922 14.5551 8.5483 14.6223C8.52737 14.6895 8.4934 14.752 8.44834 14.8061L5.76958 18.0206C5.72182 18.0778 5.66267 18.1245 5.59588 18.1576C5.5291 18.1907 5.45616 18.2096 5.38169 18.2129L5.35758 18.2135ZM11.7866 15.5347H9.6436C9.50151 15.5347 9.36524 15.4783 9.26477 15.3778C9.1643 15.2773 9.10785 15.1411 9.10785 14.999C9.10785 14.8569 9.1643 14.7206 9.26477 14.6201C9.36524 14.5197 9.50151 14.4632 9.6436 14.4632H11.7866C11.9287 14.4632 12.065 14.5197 12.1654 14.6201C12.2659 14.7206 12.3224 14.8569 12.3224 14.999C12.3224 15.1411 12.2659 15.2773 12.1654 15.3778C12.065 15.4783 11.9287 15.5347 11.7866 15.5347ZM12.3224 17.142H9.10785C8.96576 17.142 8.82949 17.0855 8.72902 16.9851C8.62854 16.8846 8.5721 16.7483 8.5721 16.6062C8.5721 16.4641 8.62854 16.3279 8.72902 16.2274C8.82949 16.1269 8.96576 16.0705 9.10785 16.0705H12.3224C12.4645 16.0705 12.6007 16.1269 12.7012 16.2274C12.8017 16.3279 12.8581 16.4641 12.8581 16.6062C12.8581 16.7483 12.8017 16.8846 12.7012 16.9851C12.6007 17.0855 12.4645 17.142 12.3224 17.142ZM5.08971 26.7855C4.50692 26.7855 3.93721 26.6127 3.45264 26.2889C2.96807 25.9651 2.59039 25.5049 2.36737 24.9665C2.14434 24.4281 2.08599 23.8356 2.19969 23.264C2.31338 22.6924 2.59402 22.1674 3.00612 21.7553C3.41821 21.3432 3.94325 21.0626 4.51485 20.9489C5.08644 20.8352 5.67891 20.8935 6.21734 21.1165C6.75576 21.3396 7.21597 21.7172 7.53975 22.2018C7.86353 22.6864 8.03635 23.2561 8.03635 23.8389C8.03535 24.6201 7.72459 25.369 7.1722 25.9214C6.61981 26.4738 5.8709 26.7845 5.08971 26.7855ZM5.08971 21.9637C4.71884 21.9637 4.3563 22.0737 4.04794 22.2798C3.73957 22.4858 3.49923 22.7787 3.35731 23.1213C3.21538 23.4639 3.17825 23.841 3.2506 24.2047C3.32295 24.5684 3.50154 24.9026 3.76379 25.1648C4.02603 25.427 4.36015 25.6056 4.72389 25.678C5.08763 25.7503 5.46465 25.7132 5.80729 25.5713C6.14992 25.4293 6.44278 25.189 6.64882 24.8806C6.85487 24.5723 6.96484 24.2097 6.96484 23.8389C6.96427 23.3417 6.76653 22.8651 6.415 22.5136C6.06347 22.162 5.58685 21.9643 5.08971 21.9637ZM11.7866 22.4995H9.6436C9.50151 22.4995 9.36524 22.4431 9.26477 22.3426C9.1643 22.2421 9.10785 22.1058 9.10785 21.9637C9.10785 21.8217 9.1643 21.6854 9.26477 21.5849C9.36524 21.4844 9.50151 21.428 9.6436 21.428H11.7866C11.9287 21.428 12.065 21.4844 12.1654 21.5849C12.2659 21.6854 12.3224 21.8217 12.3224 21.9637C12.3224 22.1058 12.2659 22.2421 12.1654 22.3426C12.065 22.4431 11.9287 22.4995 11.7866 22.4995Z" fill="#0D1321"/>
<path d="M18.7513 22.4995C17.9962 22.499 17.243 22.4236 16.5028 22.2745C16.3669 22.2431 16.2485 22.16 16.1729 22.0428C16.0973 21.9256 16.0704 21.7835 16.0978 21.6468C16.1253 21.5101 16.2051 21.3894 16.3201 21.3105C16.4351 21.2317 16.5764 21.2007 16.7139 21.2244C17.3846 21.3595 18.0671 21.4277 18.7513 21.428C20.743 21.4286 22.6912 20.8449 24.3544 19.7493C26.0177 18.6536 27.323 17.094 28.1086 15.2638C28.8942 13.4336 29.1257 11.4131 28.7742 9.45263C28.4228 7.49216 27.504 5.67786 26.1316 4.23446C24.7591 2.79107 22.9934 1.782 21.0532 1.33227C19.1129 0.88253 17.0833 1.01188 15.2158 1.7043C13.3483 2.39672 11.725 3.62178 10.5469 5.22772C9.36885 6.83367 8.68779 8.74994 8.5881 10.7392C8.57885 10.8804 8.51504 11.0124 8.41015 11.1074C8.30526 11.2024 8.16752 11.2529 8.02609 11.2481C7.9558 11.2447 7.88688 11.2274 7.82325 11.1974C7.75963 11.1673 7.70256 11.125 7.65529 11.0728C7.60803 11.0207 7.5715 10.9598 7.54779 10.8935C7.52409 10.8272 7.51367 10.7569 7.51713 10.6867C7.6273 8.48835 8.37992 6.37065 9.68178 4.59587C10.9836 2.82109 12.7775 1.4672 14.8413 0.701901C16.905 -0.0633996 19.1479 -0.206487 21.2922 0.290361C23.4364 0.78721 25.3878 1.90217 26.9047 3.49713C28.4215 5.09209 29.4371 7.09698 29.8258 9.26346C30.2144 11.4299 29.9589 13.6628 29.091 15.6856C28.2231 17.7083 26.7809 19.432 24.9431 20.6432C23.1052 21.8543 20.9524 22.4997 18.7513 22.4995Z" fill="#0D1321"/>
<path d="M18.7513 20.3562C17.9834 20.3574 17.2184 20.2616 16.4744 20.0712C16.405 20.0549 16.3395 20.0248 16.2818 19.9829C16.2241 19.9409 16.1754 19.8878 16.1385 19.8267C16.1016 19.7657 16.0773 19.6979 16.0669 19.6273C16.0566 19.5567 16.0604 19.4848 16.0783 19.4157C16.0961 19.3466 16.1276 19.2818 16.1708 19.225C16.214 19.1683 16.2682 19.1207 16.33 19.0852C16.3918 19.0496 16.4602 19.0268 16.531 19.018C16.6018 19.0092 16.6736 19.0146 16.7423 19.034C18.3446 19.4479 20.0356 19.3571 21.5844 18.7741C23.1332 18.1911 24.4644 17.1443 25.3961 15.7765C26.3278 14.4088 26.8146 12.7869 26.7902 11.1321C26.7657 9.47739 26.2311 7.87054 25.2594 6.53096C24.2876 5.19139 22.9261 4.18438 21.3607 3.64743C19.7954 3.11048 18.1024 3.06977 16.513 3.53084C14.9236 3.99192 13.5153 4.93232 12.4803 6.22363C11.4453 7.51495 10.834 9.09424 10.7301 10.7459C10.7196 10.8864 10.6541 11.0172 10.5479 11.1098C10.4417 11.2025 10.3032 11.2495 10.1626 11.2408C10.0219 11.2321 9.89033 11.1682 9.79639 11.0632C9.70244 10.9581 9.65369 10.8202 9.6607 10.6795C9.77171 8.90583 10.3992 7.20344 11.4658 5.78202C12.5323 4.36061 13.9915 3.28227 15.6633 2.67987C17.3352 2.07747 19.1468 1.97733 20.8749 2.39179C22.6029 2.80625 24.172 3.71721 25.3888 5.01241C26.6055 6.30761 27.4168 7.93048 27.7226 9.68105C28.0284 11.4316 27.8155 13.2334 27.1099 14.8644C26.4044 16.4955 25.2371 17.8845 23.7519 18.8603C22.2667 19.8361 20.5284 20.3561 18.7513 20.3562Z" fill="#0D1321"/>
<path d="M18.7513 12.8561C18.4334 12.8561 18.1227 12.7619 17.8584 12.5852C17.594 12.4086 17.388 12.1576 17.2664 11.8639C17.1447 11.5702 17.1129 11.2471 17.1749 10.9353C17.2369 10.6235 17.39 10.3371 17.6148 10.1124C17.8396 9.88758 18.126 9.7345 18.4377 9.67249C18.7495 9.61047 19.0727 9.6423 19.3664 9.76395C19.6601 9.8856 19.9111 10.0916 20.0877 10.3559C20.2643 10.6202 20.3586 10.931 20.3586 11.2489C20.3581 11.675 20.1887 12.0836 19.8873 12.3849C19.586 12.6862 19.1774 12.8557 18.7513 12.8561ZM18.7513 10.7131C18.6453 10.7131 18.5418 10.7445 18.4537 10.8034C18.3655 10.8623 18.2969 10.9459 18.2563 11.0438C18.2158 11.1417 18.2052 11.2495 18.2258 11.3534C18.2465 11.4573 18.2975 11.5528 18.3725 11.6277C18.4474 11.7026 18.5429 11.7536 18.6468 11.7743C18.7507 11.795 18.8584 11.7844 18.9563 11.7438C19.0542 11.7033 19.1379 11.6346 19.1968 11.5465C19.2556 11.4584 19.2871 11.3548 19.2871 11.2489C19.2869 11.1068 19.2304 10.9706 19.13 10.8702C19.0295 10.7697 18.8933 10.7132 18.7513 10.7131Z" fill="#0D1321"/>
<path d="M17.9937 11.027C17.9234 11.0271 17.8537 11.0132 17.7887 10.9863C17.7237 10.9594 17.6646 10.9198 17.615 10.87L16.0999 9.35438C16.0023 9.25333 15.9483 9.118 15.9495 8.97753C15.9507 8.83706 16.007 8.70268 16.1064 8.60335C16.2057 8.50402 16.3401 8.44767 16.4806 8.44645C16.621 8.44523 16.7564 8.49923 16.8574 8.59682L18.3725 10.1125C18.4474 10.1874 18.4984 10.2828 18.5191 10.3868C18.5398 10.4907 18.5291 10.5984 18.4886 10.6963C18.4481 10.7941 18.3794 10.8778 18.2913 10.9367C18.2032 10.9955 18.0997 11.027 17.9937 11.027ZM19.5088 11.027C19.4029 11.027 19.2993 10.9955 19.2113 10.9367C19.1232 10.8778 19.0545 10.7941 19.014 10.6963C18.9734 10.5984 18.9628 10.4907 18.9835 10.3868C19.0042 10.2828 19.0552 10.1874 19.1301 10.1125L22.5396 6.70294C22.6406 6.60535 22.776 6.55135 22.9165 6.55257C23.0569 6.55379 23.1913 6.61013 23.2906 6.70946C23.39 6.8088 23.4463 6.94317 23.4475 7.08364C23.4487 7.22412 23.3947 7.35945 23.2972 7.46049L19.8876 10.87C19.8379 10.9198 19.7789 10.9594 19.7139 10.9863C19.6489 11.0132 19.5792 11.0271 19.5088 11.027ZM18.7513 4.28402C18.6092 4.28402 18.4729 4.22757 18.3725 4.1271C18.272 4.02662 18.2155 3.89035 18.2155 3.74826V3.21251C18.2155 3.07042 18.272 2.93415 18.3725 2.83368C18.4729 2.7332 18.6092 2.67676 18.7513 2.67676C18.8934 2.67676 19.0297 2.7332 19.1301 2.83368C19.2306 2.93415 19.287 3.07042 19.287 3.21251V3.74826C19.287 3.89035 19.2306 4.02662 19.1301 4.1271C19.0297 4.22757 18.8934 4.28402 18.7513 4.28402ZM18.7513 19.8208C18.6092 19.8208 18.4729 19.7644 18.3725 19.6639C18.272 19.5634 18.2155 19.4272 18.2155 19.2851V18.7493C18.2155 18.6072 18.272 18.471 18.3725 18.3705C18.4729 18.27 18.6092 18.2136 18.7513 18.2136C18.8934 18.2136 19.0297 18.27 19.1301 18.3705C19.2306 18.471 19.287 18.6072 19.287 18.7493V19.2851C19.287 19.4272 19.2306 19.5634 19.1301 19.6639C19.0297 19.7644 18.8934 19.8208 18.7513 19.8208ZM26.7876 11.7846H26.2518C26.1097 11.7846 25.9735 11.7281 25.873 11.6276C25.7725 11.5272 25.7161 11.3909 25.7161 11.2488C25.7161 11.1067 25.7725 10.9704 25.873 10.87C25.9735 10.7695 26.1097 10.713 26.2518 10.713H26.7876C26.9297 10.713 27.0659 10.7695 27.1664 10.87C27.2669 10.9704 27.3233 11.1067 27.3233 11.2488C27.3233 11.3909 27.2669 11.5272 27.1664 11.6276C27.0659 11.7281 26.9297 11.7846 26.7876 11.7846Z" fill="#0D1321"/>
</svg>
