<svg width="30" height="30" viewBox="0 0 30 30" fill="none" xmlns="http://www.w3.org/2000/svg">
<path fill-rule="evenodd" clip-rule="evenodd" d="M7.75614 3.0943H22.2435C22.5264 3.0943 22.7561 2.86482 22.7561 2.58194C22.7561 2.29907 22.5264 2.06934 22.2435 2.06934H7.75614C7.47326 2.06934 7.24353 2.29907 7.24353 2.58194C7.24353 2.86482 7.47326 3.0943 7.75614 3.0943ZM7.75614 5.16411H22.2435C22.5264 5.16411 22.7561 4.93438 22.7561 4.6515C22.7561 4.36862 22.5264 4.13889 22.2435 4.13889H7.75614C7.47326 4.13889 7.24353 4.36862 7.24353 4.6515C7.24353 4.93438 7.47326 5.16411 7.75614 5.16411ZM21.7212 24.3231C21.7212 20.828 18.888 17.9947 15.3929 17.9947C15.03 17.9947 14.6647 17.9947 14.3021 17.9947C10.8067 17.9947 7.97345 20.828 7.97345 24.3231C7.97345 26.9554 7.97345 29.4872 7.97345 29.4872C7.97345 29.7703 8.20293 29.9998 8.48606 29.9998H21.2089C21.4918 29.9998 21.7212 29.7703 21.7212 29.4872V24.3231ZM20.6963 24.3231C20.6963 21.3942 18.3217 19.0197 15.3929 19.0197C15.03 19.0197 14.6647 19.0197 14.3021 19.0197C11.373 19.0197 8.99842 21.3942 8.99842 24.3231V28.9746H20.6963V24.3231Z" fill="#0D1321"/>
<path fill-rule="evenodd" clip-rule="evenodd" d="M20.6963 28.9748V24.3233C20.6963 22.8784 20.1184 21.568 19.1811 20.6119C18.9859 20.4127 18.9856 20.0943 19.1803 19.8949C20.3258 18.7224 21.9242 17.9949 23.6925 17.9949C27.1759 17.9949 30 20.8187 30 24.3024V29.4874C30 29.7705 29.7705 30 29.4874 30H17.8973V28.9748H20.6963ZM28.9748 28.9748V24.3024C28.9748 21.385 26.6099 19.0199 23.6925 19.0199C22.3841 19.0199 21.1871 19.4955 20.2642 20.2835C21.1741 21.3795 21.7213 22.7875 21.7213 24.3233V28.9748H28.9748ZM12.1024 30H0.51236C0.229482 30 0 29.7705 0 29.4874C0 29.4874 0 26.942 0 24.3024C0 20.8187 2.82382 17.9949 6.30751 17.9949C7.99212 17.9949 9.52249 18.6553 10.6538 19.7314C10.7556 19.8283 10.8132 19.9627 10.813 20.1032C10.813 20.2436 10.7551 20.3779 10.6533 20.4748C9.63425 21.4409 8.99846 22.8078 8.99846 24.3233V28.9748H12.1024V30ZM9.55602 20.137C8.6602 19.4369 7.53241 19.0199 6.30751 19.0199C3.39007 19.0199 1.02497 21.385 1.02497 24.3024V28.9748H7.97349V24.3233C7.97349 22.7182 8.57129 21.2524 9.55602 20.137ZM15 8.50721C12.7812 8.50721 10.9798 10.3085 10.9798 12.5274C10.9798 14.7459 12.7812 16.5473 15 16.5473C17.2186 16.5473 19.0199 14.7459 19.0199 12.5274C19.0199 10.3085 17.2186 8.50721 15 8.50721ZM15 9.53218C16.6528 9.53218 17.9949 10.8743 17.9949 12.5274C17.9949 14.1802 16.6528 15.5223 15 15.5223C13.3469 15.5223 12.0051 14.1802 12.0051 12.5274C12.0051 10.8743 13.3469 9.53218 15 9.53218ZM24.3134 8.50721C22.0946 8.50721 20.2932 10.3085 20.2932 12.5274C20.2932 14.7459 22.0946 16.5473 24.3134 16.5473C26.5319 16.5473 28.3333 14.7459 28.3333 12.5274C28.3333 10.3085 26.5319 8.50721 24.3134 8.50721ZM24.3134 9.53218C25.9662 9.53218 27.3083 10.8743 27.3083 12.5274C27.3083 14.1802 25.9662 15.5223 24.3134 15.5223C22.6603 15.5223 21.3184 14.1802 21.3184 12.5274C21.3184 10.8743 22.6603 9.53218 24.3134 9.53218ZM5.68662 8.50721C3.4678 8.50721 1.66647 10.3085 1.66647 12.5274C1.66647 14.7459 3.4678 16.5473 5.68662 16.5473C7.90519 16.5473 9.70652 14.7459 9.70652 12.5274C9.70652 10.3085 7.90519 8.50721 5.68662 8.50721ZM5.68662 9.53218C7.33944 9.53218 8.68156 10.8743 8.68156 12.5274C8.68156 14.1802 7.33944 15.5223 5.68662 15.5223C4.03356 15.5223 2.69169 14.1802 2.69169 12.5274C2.69169 10.8743 4.03356 9.53218 5.68662 9.53218ZM25.7745 0.22824C25.6796 0.0854347 25.5194 0 25.348 0H4.65172C4.48035 0 4.32041 0.0854347 4.22529 0.22824L2.15574 3.3327C2.04075 3.50481 2.04075 3.72908 2.15574 3.90119L4.22529 7.00565C4.32041 7.1482 4.48035 7.23388 4.65172 7.23388H25.348C25.5194 7.23388 25.6796 7.1482 25.7745 7.00565L27.8443 3.90119C27.959 3.72908 27.959 3.50481 27.8443 3.3327L25.7745 0.22824ZM4.92591 1.02497L3.19809 3.61682L4.92591 6.20892H25.0738L26.8017 3.61682L25.0738 1.02497H4.92591Z" fill="#0D1321"/>
</svg>
