<svg width="234" height="234" viewBox="0 0 234 234" fill="none" xmlns="http://www.w3.org/2000/svg">
<g opacity="0.4">
<path d="M13.3689 99.6462C18.4439 108 27.4435 112.976 35.7486 118.132C44.0533 123.287 52.5527 129.668 55.3607 139.03C59.3981 152.491 50.2889 167.467 54.8959 180.744C58.9025 192.291 72.6261 198.318 84.7482 196.755C96.8704 195.192 107.42 187.671 116.169 179.136C124.919 170.602 132.458 160.82 141.827 152.971C155.334 141.656 171.957 134.901 187.85 127.293C199.544 121.695 211.482 115.101 218.508 104.205C223.895 95.8502 225.854 85.228 223.237 75.6368C220.62 66.0456 213.299 57.7335 203.915 54.4505C189.372 49.3624 173.581 56.4395 160.212 64.0997C146.843 71.7599 132.588 80.5017 117.271 78.8253C101.93 77.1466 89.7507 65.4204 75.3606 59.8442C59.6227 53.7457 40.3954 56.5293 24.5962 61.623C9.74142 66.4116 5.79712 87.1829 13.3689 99.6462Z" fill="#969696"/>
<path d="M188.941 44.977C194.232 45.7249 199.522 46.4732 204.812 47.2211C206.556 47.4677 208.406 47.7012 210.019 46.9931C213.011 45.6799 213.831 41.5171 212.488 38.5387C211.146 35.5599 208.295 33.5695 205.453 31.9558C201.745 29.8494 197.76 28.1033 193.535 27.5145C189.311 26.9258 184.807 27.5819 181.261 29.9528C178.611 31.7251 174.278 36.8642 175.99 40.3475C177.684 43.793 185.735 44.5235 188.941 44.977Z" fill="#969696"/>
</g>
<path d="M54.5875 48.5401C54.5866 48.5401 54.5861 48.5405 54.5852 48.5405L54.4775 48.5639L54.3966 48.2017L54.5005 48.1792C54.5014 48.1792 54.5028 48.1788 54.5028 48.1788C55.3199 47.9963 56.1155 47.729 56.8676 47.3832L57.0295 47.7183C56.2527 48.0753 55.4313 48.3519 54.5875 48.5401ZM51.7973 48.8363C50.8973 48.8279 49.9974 48.7193 49.1217 48.5129L49.2107 48.1526C50.0582 48.3524 50.9296 48.4577 51.801 48.4657L51.7973 48.8363ZM59.3218 46.3339L59.0869 46.0428C59.7697 45.5177 60.3935 44.9149 60.9406 44.2509L61.2369 44.4834C60.671 45.1691 60.0266 45.792 59.3218 46.3339ZM46.5889 47.6111C45.7835 47.2194 45.0225 46.7383 44.3266 46.1814L44.5672 45.8949C45.2411 46.4341 45.9777 46.9002 46.7579 47.2797L46.5889 47.6111ZM62.6802 42.2623L62.3385 42.0999C62.7209 41.3338 63.0143 40.526 63.2104 39.6981L63.5806 39.7814C63.378 40.6365 63.0747 41.4714 62.6802 42.2623ZM42.4485 44.2948C41.8977 43.5994 41.4278 42.8422 41.052 42.0442L41.3969 41.8893C41.7606 42.662 42.2155 43.3949 42.7485 44.0679L42.4485 44.2948ZM63.8871 37.1667H63.5076C63.5076 36.3201 63.4088 35.4688 63.2142 34.6353L63.5843 34.553C63.7851 35.4131 63.8871 36.2925 63.8871 37.1667ZM40.5807 39.4698L40.2091 39.546C40.0238 38.6831 39.9382 37.8023 39.955 36.9271L40.3346 36.9341C40.3187 37.7812 40.4015 38.6344 40.5807 39.4698ZM62.5299 32.6094C62.1808 31.8301 61.74 31.0893 61.2195 30.4065L61.5242 30.1851C62.0615 30.8904 62.5168 31.656 62.8777 32.4605L62.5299 32.6094ZM40.68 34.4083L40.3116 34.318C40.5307 33.4667 40.8494 32.6379 41.2584 31.854L41.5968 32.0225C41.2004 32.7816 40.892 33.5842 40.68 34.4083ZM59.436 28.548C58.7724 27.9967 58.0442 27.518 57.2715 27.1244L57.447 26.7954C58.2449 27.2016 58.997 27.6963 59.6822 28.2654L59.436 28.548ZM43.0349 29.8968L42.7434 29.6591C43.3209 28.9842 43.9765 28.3735 44.6926 27.8432L44.9224 28.1385C44.2293 28.6519 43.5942 29.2435 43.0349 29.8968ZM54.8365 26.2071C53.9927 25.9923 53.1231 25.8711 52.2527 25.8472L52.2634 25.4766C53.1625 25.5014 54.0605 25.6263 54.9324 25.8482L54.8365 26.2071ZM47.1664 26.8389L47.0106 26.5005C47.7266 26.187 48.4806 25.9408 49.2523 25.7686C49.3632 25.7438 49.4695 25.7218 49.578 25.7003L49.6524 26.0639C49.5471 26.084 49.4344 26.1013 49.337 26.1299C48.5896 26.297 47.8595 26.5356 47.1664 26.8389Z" fill="#2E363D"/>
<path d="M67.8417 40.2592C68.2859 42.1555 67.0705 44.0443 65.1278 44.4777C63.1851 44.9111 61.2504 43.7247 60.8063 41.8284C60.3622 39.932 61.5776 38.0432 63.5202 37.6098C65.4629 37.1764 67.3976 38.3623 67.8417 40.2592Z" fill="#2E363D"/>
<path d="M187.167 61.9168C187.167 63.3503 185.976 64.5123 184.508 64.5123C183.04 64.5123 181.849 63.3503 181.849 61.9168C181.849 60.4833 183.039 59.3213 184.508 59.3213C185.977 59.3213 187.167 60.4833 187.167 61.9168Z" fill="#2E363D"/>
<path d="M99.4912 57.1481C101.064 57.1481 102.34 55.9031 102.34 54.3673C102.34 52.8315 101.064 51.5864 99.4912 51.5864C97.9179 51.5864 96.6425 52.8315 96.6425 54.3673C96.6425 55.9031 97.9179 57.1481 99.4912 57.1481Z" fill="#2E363D"/>
<path d="M104.619 62.8948C104.393 62.8948 104.167 62.8803 103.946 62.8522L103.995 62.4848C104.839 62.593 105.713 62.4774 106.497 62.1479L106.647 62.4881C106.005 62.7582 105.323 62.8948 104.619 62.8948ZM101.434 61.8128C100.708 61.2503 100.151 60.5075 99.8234 59.6651L100.178 59.5336C100.481 60.3133 100.998 61.0013 101.671 61.5222L101.434 61.8128ZM108.774 60.823L108.466 60.6054C108.969 59.9277 109.274 59.1293 109.349 58.2963L109.727 58.3285C109.647 59.228 109.317 60.0906 108.774 60.823ZM99.8712 57.8896H99.4911C99.4911 56.984 99.7415 56.0962 100.216 55.323L100.542 55.5135C100.103 56.2291 99.8712 57.0504 99.8712 57.8896ZM108.894 55.8715C108.521 55.1195 107.946 54.4783 107.23 54.0173L107.439 53.708C108.211 54.2059 108.833 54.8981 109.236 55.7101L108.894 55.8715ZM102.366 53.8086L102.185 53.4824C102.994 53.0561 103.931 52.8492 104.844 52.8885L104.827 53.2587C103.984 53.2236 103.114 53.4141 102.366 53.8086Z" fill="#2E363D"/>
<path d="M190.337 71.8479C189.417 71.781 188.538 71.5334 187.726 71.1122L187.903 70.7851C188.669 71.182 189.497 71.415 190.365 71.4782L190.337 71.8479ZM193.031 71.5049L192.905 71.1553C193.723 70.8764 194.461 70.4425 195.099 69.8645L195.358 70.136C194.68 70.7491 193.898 71.2096 193.031 71.5049ZM185.636 69.4167C185.061 68.7119 184.65 67.9144 184.413 67.0472L184.781 66.9522C185.003 67.7693 185.391 68.5209 185.933 69.1855L185.636 69.4167ZM196.932 67.9738L196.584 67.8255C196.93 67.0523 197.106 66.2291 197.106 65.3774H197.486C197.485 66.2806 197.299 67.1539 196.932 67.9738ZM197.069 64.7105C196.975 63.8676 196.708 63.0682 196.276 62.3335L196.605 62.1491C197.064 62.9288 197.347 63.7768 197.447 64.6711L197.069 64.7105ZM184.642 64.4554L184.267 64.4002C184.404 63.5114 184.723 62.6756 185.216 61.9142L185.537 62.1126C185.073 62.8296 184.772 63.6181 184.642 64.4554ZM194.574 60.4643C193.876 59.9574 193.093 59.6046 192.248 59.415L192.333 59.0537C193.229 59.255 194.059 59.6294 194.8 60.1666L194.574 60.4643ZM187.319 60.3145L187.105 60.0085C187.868 59.5016 188.714 59.1618 189.618 58.998L189.687 59.3622C188.835 59.5171 188.038 59.8372 187.319 60.3145Z" fill="#2E363D"/>
<path d="M122.507 175.859H86.4316V188.205C98.3296 185.493 110.405 183.245 122.507 181.158V175.859Z" fill="#969696" stroke="#121D30" stroke-width="0.75" stroke-miterlimit="10"/>
<path d="M86.4312 188.205V200.986H122.507V181.157C110.405 183.245 98.3291 185.493 86.4312 188.205Z" stroke="#121D30" stroke-width="0.75" stroke-miterlimit="10"/>
<path d="M147.66 207.447H61.279C60.6949 207.447 60.5634 206.628 61.1185 206.445L86.4316 198.114H122.507L147.821 206.445C148.375 206.628 148.244 207.447 147.66 207.447Z" fill="#5C5C5C" stroke="#121D30" stroke-width="0.75" stroke-miterlimit="10"/>
<path d="M118.415 198.114H121.652" stroke="#121D30" stroke-width="0.75" stroke-miterlimit="10"/>
<path d="M86.4312 198.114H115.087" stroke="#121D30" stroke-width="0.75" stroke-miterlimit="10"/>
<path d="M175.292 178.632H33.6024C30.223 178.632 27.4833 175.893 27.4833 172.513V78.9301C27.4833 75.5507 30.223 72.811 33.6024 72.811H175.292C178.672 72.811 181.411 75.5507 181.411 78.9301V172.513C181.411 175.893 178.672 178.632 175.292 178.632Z" fill="#DEDEDE" stroke="#121D30" stroke-width="0.75" stroke-miterlimit="10"/>
<path d="M27.4833 167.751V172.513C27.4833 175.893 30.223 178.632 33.6024 178.632H175.292C178.672 178.632 181.411 175.893 181.411 172.513V167.751H27.4833Z" fill="#5C5C5C" stroke="#121D30" stroke-width="0.75" stroke-miterlimit="10"/>
<path d="M32.9537 162.003V78.5561C32.9537 78.0263 33.3834 77.5967 33.9131 77.5967H174.981C175.511 77.5967 175.94 78.0263 175.94 78.5561V162.003C175.94 162.533 175.511 162.962 174.981 162.962H33.9131C33.3834 162.962 32.9537 162.533 32.9537 162.003Z" fill="white" stroke="#121D30" stroke-width="0.75" stroke-miterlimit="10"/>
<path d="M106.96 172.406C106.96 173.793 105.835 174.918 104.447 174.918C103.06 174.918 101.935 173.793 101.935 172.406C101.935 171.018 103.06 169.893 104.447 169.893C105.835 169.893 106.96 171.018 106.96 172.406Z" stroke="#121D30" stroke-width="0.75" stroke-miterlimit="10"/>
<path d="M117.746 91.8403L120.057 96.2765H143.835C144.518 96.2765 145.072 96.8301 145.072 97.5134V128.741C145.072 129.424 144.518 129.978 143.835 129.978H98.2303C97.547 129.978 96.9934 129.424 96.9934 128.741V98.5954V96.2765V92.4117C96.9934 91.7289 97.547 91.1748 98.2303 91.1748H116.649C117.11 91.1748 117.533 91.4313 117.746 91.8403Z" fill="#FFDFC7"/>
<path d="M129.649 115.605C130.783 110.844 127.842 106.065 123.081 104.932C118.32 103.798 113.542 106.739 112.408 111.5C111.275 116.261 114.215 121.039 118.976 122.173C123.737 123.306 128.516 120.366 129.649 115.605Z" fill="#2E363D"/>
<path d="M124.81 116.85L121.515 113.555L124.81 110.259C124.943 110.127 124.943 109.91 124.81 109.777C124.678 109.645 124.461 109.645 124.328 109.777L121.033 113.073L117.737 109.777C117.605 109.645 117.387 109.645 117.255 109.777C117.123 109.91 117.123 110.127 117.255 110.259L120.551 113.555L117.255 116.85C117.123 116.983 117.123 117.2 117.255 117.332C117.387 117.465 117.605 117.465 117.737 117.332L121.033 114.037L124.328 117.332C124.461 117.465 124.678 117.465 124.81 117.332C124.943 117.2 124.943 116.983 124.81 116.85Z" fill="white"/>
<path d="M171.97 91.8403L174.281 96.2765H198.059C198.742 96.2765 199.296 96.8301 199.296 97.5134V128.741C199.296 129.424 198.742 129.978 198.059 129.978H152.454C151.771 129.978 151.217 129.424 151.217 128.741V98.5954V96.2765V92.4117C151.217 91.7289 151.771 91.1748 152.454 91.1748H170.873C171.334 91.1748 171.757 91.4313 171.97 91.8403Z" fill="#969696"/>
<path d="M183.971 115.188C184.872 110.377 181.703 105.747 176.893 104.846C172.083 103.944 167.452 107.113 166.551 111.923C165.649 116.734 168.818 121.364 173.628 122.266C178.439 123.167 183.069 119.998 183.971 115.188Z" fill="#2E363D"/>
<path d="M179.034 116.85L175.738 113.555L179.034 110.259C179.166 110.127 179.166 109.91 179.034 109.777C178.901 109.645 178.684 109.645 178.552 109.777L175.256 113.073L171.96 109.777C171.828 109.645 171.611 109.645 171.478 109.777C171.346 109.91 171.346 110.127 171.478 110.259L174.774 113.555L171.478 116.85C171.346 116.983 171.346 117.2 171.478 117.332C171.611 117.465 171.828 117.465 171.96 117.332L175.256 114.037L178.552 117.332C178.684 117.465 178.901 117.465 179.034 117.332C179.167 117.2 179.167 116.983 179.034 116.85Z" fill="white"/>
<path d="M63.5225 91.8403L65.833 96.2765H89.6112C90.2945 96.2765 90.8481 96.8301 90.8481 97.5134V128.741C90.8481 129.424 90.2945 129.978 89.6112 129.978H44.0065C43.3232 129.978 42.7695 129.424 42.7695 128.741V98.5954V96.2765V92.4117C42.7695 91.7289 43.3232 91.1748 44.0065 91.1748H62.4255C62.887 91.1748 63.3096 91.4313 63.5225 91.8403Z" fill="#969696"/>
<path d="M75.4273 115.604C76.5608 110.843 73.6201 106.065 68.8591 104.931C64.0982 103.798 59.3197 106.739 58.1863 111.5C57.0528 116.261 59.9935 121.039 64.7545 122.172C69.5155 123.306 74.2939 120.365 75.4273 115.604Z" fill="#2E363D"/>
<path d="M70.5865 116.85L67.2909 113.555L70.5865 110.259C70.719 110.127 70.719 109.91 70.5865 109.777C70.4541 109.645 70.237 109.645 70.1045 109.777L66.8088 113.073L63.5132 109.777C63.3808 109.645 63.1636 109.645 63.0312 109.777C62.8987 109.91 62.8987 110.127 63.0312 110.259L66.3268 113.555L63.0312 116.85C62.8987 116.983 62.8987 117.2 63.0312 117.332C63.1636 117.465 63.3808 117.465 63.5132 117.332L66.8088 114.037L70.1045 117.332C70.237 117.465 70.4541 117.465 70.5865 117.332C70.719 117.2 70.7195 116.983 70.5865 116.85Z" fill="white"/>
<path d="M97.425 175.508H169.505L177.117 95.377H105.036L97.425 175.508Z" fill="#DEDEDE"/>
<path d="M96.1216 175.248H168.202L174.643 93.0186H102.562L96.1216 175.248Z" fill="#5C5C5C"/>
<path d="M94.7649 172.595H167.921L173.286 90.3652H109.513L94.7649 172.595Z" fill="#969696"/>
<path d="M108.869 88.564H96.4932V97.2468V99.9719V175.431H168.574V88.564H108.869Z" fill="#EAEAEA"/>
<path d="M161.036 87.7755C161.001 88.485 161.369 89.0794 161.857 89.1032C162.345 89.128 162.769 88.5716 162.804 87.8616C162.838 87.1521 162.47 86.5573 161.983 86.5334C161.495 86.51 161.071 87.066 161.036 87.7755Z" fill="#2E363D"/>
<path opacity="0.53" d="M159.346 88.0105C159.604 88.7859 160.246 89.2713 160.779 89.0939C161.313 88.9165 161.536 88.1438 161.278 87.3688C161.021 86.5929 160.38 86.108 159.846 86.2849C159.312 86.4623 159.089 87.235 159.346 88.0105Z" fill="#2E363D"/>
<path d="M157.989 89.3509C157.599 90.4189 158.43 91.704 159.844 92.2202C161.259 92.7364 162.721 92.2886 163.112 91.2197C163.502 90.1512 162.671 88.8665 161.256 88.3503C159.842 87.8337 158.379 88.282 157.989 89.3509Z" fill="#121D30"/>
<path d="M156.495 89.1779C149.222 88.064 138.538 93.0019 139.542 101.942C140.259 108.317 148.943 111.199 151.662 104.943C155.343 96.474 143.923 94.7887 138.407 95.1757C132.072 95.6203 127.92 95.8024 120.675 104.143C117.71 107.556 116.967 120.686 124.319 121.577" stroke="#121D30" stroke-width="0.75" stroke-miterlimit="10" stroke-dasharray="5.52 5.52"/>
<path d="M75.2319 89.8511C72.7618 93.4832 77.0876 98.189 80.3804 99.5686C87.9845 102.756 93.0655 94.9696 100.354 95.7118C106.612 96.3488 110.492 100.571 107.176 107.585C105.121 111.93 95.1973 113.183 95.5427 106.934" stroke="#121D30" stroke-width="0.75" stroke-miterlimit="10" stroke-dasharray="5.52 5.52"/>
<path d="M74.9161 84.5328C74.5711 85.1538 73.945 85.4641 73.5177 85.2264C73.0904 84.9896 73.0239 84.2927 73.3698 83.6721C73.7156 83.0516 74.3418 82.7408 74.7682 82.9781C75.1959 83.2163 75.2619 83.9118 74.9161 84.5328Z" fill="#2E363D"/>
<path opacity="0.53" d="M76.2269 85.6257C75.5979 86.1475 74.7971 86.2205 74.4382 85.7885C74.0788 85.3561 74.2969 84.5816 74.9254 84.0597C75.5539 83.5374 76.3547 83.4644 76.7141 83.8964C77.074 84.3288 76.8554 85.1029 76.2269 85.6257Z" fill="#2E363D"/>
<path d="M76.671 87.4804C76.438 88.5933 75.0536 89.2453 73.5799 88.9359C72.1062 88.6266 71.1014 87.4739 71.3349 86.36C71.568 85.2467 72.9528 84.5952 74.4261 84.9046C75.8998 85.2134 76.905 86.3671 76.671 87.4804Z" fill="#121D30"/>
<path d="M173.531 96.4892C173.531 96.4892 168.789 93.4074 165.987 97.0887C162.481 101.697 170.724 105.784 168.077 109.056C165.429 112.329 161.956 113.94 163.1 119.475C164.596 126.713 180.633 131.102 188.407 120.878C196.182 110.655 187.899 101.004 182.161 100.781C175.257 100.513 173.531 96.4892 173.531 96.4892Z" fill="#121D30"/>
<path d="M175.705 107.441L178.162 113.358C178.48 114.124 179.08 114.688 179.791 114.982C180.499 115.277 181.322 115.301 182.088 114.983C183.621 114.346 184.345 112.587 183.709 111.055L181.252 105.138L175.705 107.441Z" fill="#FFB9AB"/>
<path d="M184.722 101.552C184.958 102.772 184.161 103.953 182.941 104.19C181.721 104.427 180.54 103.63 180.304 102.41C180.067 101.19 180.864 100.009 182.084 99.7721C183.304 99.5353 184.485 100.332 184.722 101.552Z" fill="#FFB9AB"/>
<path d="M183.825 101.001L182.641 102.799" stroke="#121D30" stroke-width="0.75" stroke-miterlimit="10"/>
<path d="M172.785 106.021C173.022 107.241 172.224 108.421 171.004 108.658C169.784 108.895 168.603 108.098 168.366 106.878C168.13 105.658 168.927 104.477 170.147 104.24C171.367 104.004 172.548 104.801 172.785 106.021Z" fill="#FFB9AB"/>
<path d="M170.77 106.368C170.77 106.368 169.042 105.562 168.18 102.306L169.846 101.614L170.77 106.368Z" fill="#121D30"/>
<path d="M171.298 107.224L169.038 106.332" stroke="#121D30" stroke-width="0.75" stroke-miterlimit="10"/>
<path d="M172.607 96.0827C169.622 97.3219 168.208 100.746 169.447 103.731L171.291 108.171C171.337 108.282 171.39 108.385 171.45 108.487C171.745 108.978 172.213 109.35 172.772 109.52L175.717 110.431C176.609 110.708 177.585 110.429 178.199 109.717L181.576 105.806C182.157 105.128 182.307 104.183 181.966 103.363L180.255 99.2426C179.016 96.2582 175.591 94.8434 172.607 96.0827Z" fill="#FFB9AB"/>
<path d="M180.239 107.307L178.275 109.583C177.943 109.967 177.525 110.269 177.056 110.464L176.871 110.541" stroke="#121D30" stroke-width="0.75" stroke-miterlimit="10"/>
<path d="M171.76 96.4346L174.315 106.467L176.039 105.751" stroke="#121D30" stroke-width="0.75" stroke-miterlimit="10"/>
<path d="M170.057 105.199L171.208 107.97C171.275 107.953 171.344 107.931 171.414 107.902C172.188 107.581 172.556 106.695 172.233 105.918C171.912 105.145 171.025 104.78 170.251 105.102C170.182 105.131 170.117 105.164 170.057 105.199Z" fill="#CB705D"/>
<path d="M177.215 103.851C177.537 104.625 178.425 104.992 179.198 104.671C179.972 104.349 180.339 103.462 180.018 102.688C179.696 101.914 178.808 101.547 178.035 101.868C177.261 102.189 176.894 103.077 177.215 103.851Z" fill="#CB705D"/>
<path d="M180.044 98.7349L181.498 102.238C181.498 102.238 179.594 101.58 178.623 99.1317L180.044 98.7349Z" fill="#121D30"/>
<path d="M165.345 98.2253C168.147 94.5435 173.531 96.4876 173.531 96.4876C173.531 96.4876 173.33 101.33 182.16 100.781C183.613 100.69 186.085 102.166 187.359 103.069C187.359 103.069 183.639 98.8894 181.794 95.9527C179.945 93.0146 177.341 94.6685 177.341 94.6685C177.341 94.6685 173.913 91.2174 169.217 93.191C165.963 94.558 165.345 98.2253 165.345 98.2253Z" fill="#121D30"/>
<path d="M171.253 105.054C171.456 105.542 171.834 105.846 172.101 105.735C172.371 105.623 172.423 105.141 172.22 104.652C172.162 104.511 172.088 104.387 172.006 104.284L171.178 104.204C171.097 104.417 171.121 104.734 171.253 105.054Z" fill="#121D30"/>
<path d="M170.682 101.85C170.359 101.044 169.923 100.867 169.431 101.755L170.682 101.85Z" fill="#121D30"/>
<path d="M176.534 99.1341C175.749 98.7643 175.309 98.9309 175.554 99.9161L176.534 99.1341Z" fill="#121D30"/>
<path d="M176.33 102.946C176.533 103.434 176.911 103.737 177.178 103.627C177.446 103.516 177.5 103.032 177.298 102.544C177.134 102.151 176.851 101.877 176.609 101.848L176.605 101.849L176.231 102.62C176.252 102.722 176.284 102.835 176.33 102.946Z" fill="#121D30"/>
<path d="M183.219 135.696L194.023 133.585L194.991 115.513C195.206 112.904 193.187 110.649 190.57 110.577L182.33 110.35L176.476 114.027C174.45 115.3 173.752 117.922 174.877 120.034L183.219 135.696Z" fill="#FFDFC7"/>
<path d="M176.573 108.704C176.966 108.49 176.853 107.904 176.517 107.418C176.321 107.135 176.057 106.898 175.796 106.831C175.473 106.748 175.359 107.311 175.444 107.864C175.547 108.515 175.883 109.08 176.573 108.704Z" fill="#121D30"/>
<path d="M175.424 107.7L176.418 107.287C176.236 107.064 176.015 106.888 175.796 106.831C175.503 106.756 175.384 107.205 175.424 107.7Z" fill="white"/>
<path d="M170.973 148.741L176.481 133.585L182.06 133.801V133.803C181.722 137.94 180.241 141.903 177.784 145.249L172.889 151.245L170.973 148.741Z" fill="#FFB9AB"/>
<path d="M179.956 136.808C181.48 136.455 182.43 134.934 182.077 133.41L178.905 119.699C178.552 118.176 177.031 117.226 175.507 117.578C173.983 117.931 173.034 119.452 173.386 120.976L176.843 135.351C176.843 135.351 178.433 137.161 179.956 136.808Z" fill="#FFB9AB"/>
<path d="M197.387 133.364C198.884 132.91 199.73 131.329 199.276 129.832L195.222 115.846C194.768 114.349 193.186 113.504 191.689 113.958C190.192 114.412 189.347 115.993 189.8 117.49L193.816 130.948C194.155 132.031 194.96 132.932 196.034 133.296C196.47 133.443 196.938 133.5 197.387 133.364Z" fill="#FFB9AB"/>
<path d="M172.547 125.964L177.426 123.551L183.42 123.076L178.225 125.474L172.547 125.964Z" fill="#FFDFC7"/>
<path d="M172.247 120.598L174.155 127.515L182.524 125.32L176.476 114.026L174.435 115.22C172.571 116.309 171.673 118.516 172.247 120.598Z" fill="#FFDFC7"/>
<path d="M172.547 125.964L178.225 125.474L178.899 128.14L173.344 128.644L172.547 125.964Z" fill="white"/>
<path d="M178.881 117.304L175.971 112.494L184.423 107.982L186.091 114.309L178.881 117.304Z" fill="#FFDFC7"/>
<path d="M184.985 112.474C185.079 113.354 185.166 114.448 185.187 115.591C185.249 119.051 184.689 121.383 183.565 122.332C183.339 122.523 183.107 122.616 182.856 122.616C181.838 122.616 180.435 121.094 178.904 118.332C178.46 117.53 178.06 116.723 177.731 116.022C178.526 116.654 179.411 116.996 180.31 116.996C182.41 116.996 184.135 115.276 184.985 112.474ZM185.067 110.425C184.509 114.53 182.452 116.645 180.311 116.645C178.944 116.645 177.543 115.783 176.476 114.027C176.476 114.027 179.998 122.967 182.857 122.967C183.179 122.967 183.493 122.853 183.792 122.6C186.747 120.103 185.067 110.425 185.067 110.425Z" fill="white"/>
<path d="M178.615 202.229H172.904L175.23 184.564H180.941L178.615 202.229Z" fill="#FFB9AB"/>
<path d="M179.158 202.202H172.728L173.757 193.797L180.128 194.285L179.158 202.202Z" fill="white"/>
<path d="M179.661 207.448H165.071L165.453 206.145C165.578 205.72 165.766 205.326 166.005 204.969C166.512 204.21 167.255 203.626 168.138 203.315L168.533 203.176C168.92 203.039 169.284 202.86 169.621 202.643C169.911 202.455 170.18 202.243 170.423 202.003C170.952 201.487 171.37 200.855 171.639 200.142H179.837L179.7 204.969L179.661 207.448Z" fill="#2E363D"/>
<path d="M174.057 200.966H171.174" stroke="#121D30" stroke-width="0.75" stroke-miterlimit="10"/>
<path d="M173.313 201.969H170.431" stroke="#121D30" stroke-width="0.75" stroke-miterlimit="10"/>
<path d="M176.922 203.938C176.928 204.134 176.774 204.293 176.578 204.293C176.382 204.293 176.217 204.134 176.211 203.938C176.205 203.741 176.359 203.582 176.555 203.582C176.752 203.582 176.916 203.741 176.922 203.938Z" stroke="#121D30" stroke-width="0.75" stroke-miterlimit="10"/>
<path d="M175.182 203.938C175.188 204.134 175.034 204.293 174.837 204.293C174.641 204.293 174.477 204.134 174.47 203.938C174.464 203.741 174.618 203.582 174.815 203.582C175.011 203.582 175.175 203.741 175.182 203.938Z" stroke="#121D30" stroke-width="0.75" stroke-miterlimit="10"/>
<path d="M179.661 207.447H165.071L165.453 206.145C165.578 205.72 165.766 205.325 166.005 204.969H179.701L179.661 207.447Z" fill="#DEDEDE"/>
<path d="M179.739 206.209H170.564" stroke="#121D30" stroke-width="0.75" stroke-miterlimit="10"/>
<path d="M173.259 207.448H165.071L165.452 206.145C165.578 205.72 165.765 205.326 166.004 204.969C166.512 204.21 167.254 203.626 168.137 203.315L168.532 203.176C168.92 203.039 169.284 202.86 169.621 202.643C171.52 203.521 172.934 205.313 173.259 207.448Z" fill="#DEDEDE"/>
<path d="M171.639 200.142L171.451 199.416C171.319 198.905 171.693 198.419 172.217 198.419H172.948C173.525 198.419 174.071 198.712 174.399 199.197L175.038 200.142H171.639Z" fill="#2E363D"/>
<path d="M195.559 133.541L179.808 132.688L181.188 136.678L194.3 136.536L195.559 133.541Z" fill="#2E363D"/>
<path d="M181.188 136.678C181.188 136.678 175.793 141.666 175.473 150.563H199.6C199.6 142.201 194.301 136.536 194.301 136.536L181.188 136.678Z" fill="#2E363D"/>
<path d="M195.072 140.023H191.289C191.289 140.023 193.157 144.33 196.879 144.613" stroke="white" stroke-width="0.75" stroke-miterlimit="10"/>
<path d="M178.607 140.023H180.692C180.692 140.023 179.896 144.101 176.51 144.613" stroke="white" stroke-width="0.75" stroke-miterlimit="10"/>
<path d="M185.677 136.948L186.042 143.55C186.042 143.55 187.266 142.899 187.006 140.701" stroke="white" stroke-width="0.75" stroke-miterlimit="10"/>
<path d="M190.083 137.362H193.518V135.997H190.083V137.362Z" fill="#121D30"/>
<path d="M181.733 137.362H182.929V135.997H181.733V137.362Z" fill="#121D30"/>
<path d="M183.716 137.362H189.128V135.997H183.716V137.362Z" fill="#121D30"/>
<path d="M184.73 137.636H187.045V135.723H184.73V137.636Z" fill="white"/>
<path d="M200.722 202.218L195.01 202.475L192.09 183.305L197.801 183.048L200.722 202.218Z" fill="#FFB9AB"/>
<path d="M201.051 202.203L194.627 202.492L193.518 193.758L199.931 194.144L201.051 202.203Z" fill="#FFDFC7"/>
<path d="M202.303 207.448H187.713L187.841 206.145C187.884 205.72 187.995 205.326 188.165 204.969C188.524 204.21 189.153 203.626 189.976 203.315L190.344 203.176C190.705 203.039 191.034 202.86 191.329 202.643C191.582 202.455 191.81 202.243 192.006 202.003C192.436 201.487 192.73 200.855 192.86 200.142H201.058L201.861 204.969L202.303 207.448Z" fill="#2E363D"/>
<path d="M195.438 200.966H192.556" stroke="#121D30" stroke-width="0.75" stroke-miterlimit="10"/>
<path d="M194.89 201.969H192.008" stroke="#121D30" stroke-width="0.75" stroke-miterlimit="10"/>
<path d="M198.882 203.938C198.927 204.134 198.803 204.293 198.607 204.293C198.411 204.293 198.215 204.134 198.171 203.938C198.126 203.741 198.25 203.582 198.446 203.582C198.643 203.582 198.838 203.741 198.882 203.938Z" stroke="#121D30" stroke-width="0.75" stroke-miterlimit="10"/>
<path d="M197.141 203.938C197.186 204.134 197.062 204.293 196.866 204.293C196.67 204.293 196.474 204.134 196.43 203.938C196.385 203.741 196.509 203.582 196.705 203.582C196.902 203.582 197.097 203.741 197.141 203.938Z" stroke="#121D30" stroke-width="0.75" stroke-miterlimit="10"/>
<path d="M202.303 207.447H187.713L187.841 206.145C187.884 205.72 187.995 205.325 188.165 204.969H201.86L202.303 207.447Z" fill="#DEDEDE"/>
<path d="M192.859 206.209H202.034" stroke="#121D30" stroke-width="0.75" stroke-miterlimit="10"/>
<path d="M195.901 207.448H187.713L187.841 206.145C187.884 205.72 187.995 205.326 188.165 204.969C188.524 204.21 189.153 203.626 189.976 203.315L190.344 203.176C190.705 203.039 191.034 202.86 191.329 202.643C193.398 203.521 195.161 205.313 195.901 207.448Z" fill="#DEDEDE"/>
<path d="M192.86 200.142L192.532 199.416C192.301 198.905 192.579 198.419 193.103 198.419H193.834C194.411 198.419 195.015 198.712 195.437 199.197L196.26 200.142H192.86Z" fill="#2E363D"/>
<path d="M187 150.134L183.562 191.943H171.617L175.508 150.305L187 150.134Z" fill="#2E363D"/>
<path d="M197.71 169.295L201.915 191.943H189.971L186.217 169.465L197.71 169.295Z" fill="#2E363D"/>
<path d="M197.71 169.295C197.71 169.295 199.6 156.881 199.591 150.499H187.646L186.217 169.465L197.71 169.295Z" fill="#2E363D"/>
<path d="M195.795 113.19L199.299 118.472L190.484 124.268L186.601 110.476L190.933 110.536C192.892 110.564 194.712 111.557 195.795 113.19Z" fill="#FFDFC7"/>
<path d="M199.222 116.239L189.262 122.432L190.276 125.506L200.682 118.624L199.222 116.239Z" fill="white"/>
<path d="M176.592 126.322L177.089 121.699L175.287 120.034" stroke="#121D30" stroke-width="0.75" stroke-miterlimit="10"/>
<path d="M172.578 147.385L165.082 144.122C164.715 144.966 165.101 145.949 165.945 146.316L166.989 146.77L167.691 148.477C167.929 154.226 172.889 151.245 172.889 151.245L172.578 147.385Z" fill="#FFB9AB"/>
<path d="M167.988 146.27L169.374 151.66C166.353 151.875 164.245 152.16 164.245 152.16C163.046 151.284 162.375 149.941 162.007 148.844L165.591 148.11C164.091 147.848 162.563 148.045 161.81 148.182C161.626 147.482 161.579 146.993 161.579 146.993C165.175 146.248 167.988 146.27 167.988 146.27Z" fill="#FFB9AB"/>
<path d="M170.53 150.938C167.38 150.598 167.861 147.326 167.861 147.326L165.946 146.317" stroke="#121D30" stroke-width="0.75" stroke-miterlimit="10"/>
<path d="M162.391 149.817C165.131 149.513 166.432 149.344 166.432 149.344" stroke="#121D30" stroke-width="0.75" stroke-miterlimit="10"/>
<path d="M163.208 151.047L166.804 150.532" stroke="#121D30" stroke-width="0.75" stroke-miterlimit="10"/>
<path d="M181.733 191.943L185.887 149.215H187.981" stroke="white" stroke-width="0.75" stroke-miterlimit="10"/>
<path d="M193.518 137.362C193.518 137.362 198.575 144.425 197.532 152.16C196.489 159.894 195.559 169.295 195.559 169.295L200.239 191.943" stroke="white" stroke-width="0.75" stroke-miterlimit="10"/>
<path d="M200.157 195.77L193.742 195.525" stroke="#121D30" stroke-width="0.75" stroke-miterlimit="10"/>
<path d="M180.128 195.648L173.596 195.116" stroke="#121D30" stroke-width="0.75" stroke-miterlimit="10"/>
<path d="M127.629 126.433L132.537 135.857H183.049C184.5 135.857 185.677 137.033 185.677 138.484V204.821C185.677 206.272 184.501 207.448 183.049 207.448H86.171C84.7202 207.448 83.5436 206.272 83.5436 204.821V140.782V135.856V127.646C83.5436 126.195 84.7197 125.019 86.171 125.019H125.299C126.279 125.019 127.177 125.564 127.629 126.433Z" fill="#FFDFC7"/>
<path d="M88.1441 138.197C94.1928 138.197 99.0962 133.293 99.0962 127.245C99.0962 121.196 94.1928 116.292 88.1441 116.292C82.0954 116.292 77.192 121.196 77.192 127.245C77.192 133.293 82.0954 138.197 88.1441 138.197Z" fill="#2E363D"/>
<path d="M92.8129 131.318L88.7399 127.245L92.8129 123.172C92.9767 123.008 92.9767 122.74 92.8129 122.576C92.6491 122.412 92.3809 122.412 92.2171 122.576L88.1441 126.649L84.0711 122.576C83.9073 122.412 83.6391 122.412 83.4753 122.576C83.3115 122.74 83.3115 123.008 83.4753 123.172L87.5483 127.245L83.4753 131.318C83.3115 131.482 83.3115 131.75 83.4753 131.914C83.6391 132.077 83.9073 132.077 84.0711 131.914L88.1441 127.841L92.2171 131.914C92.3809 132.077 92.6491 132.077 92.8129 131.914C92.9767 131.75 92.9767 131.482 92.8129 131.318Z" fill="white"/>
<path d="M118.586 191.83C130.843 175.254 146.293 182.056 150.211 191.83" stroke="#121D30" stroke-width="0.75" stroke-miterlimit="10"/>
<path d="M111.699 164.968C114.086 164.968 116.022 161.46 116.022 157.134C116.022 152.807 114.086 149.3 111.699 149.3C109.312 149.3 107.376 152.807 107.376 157.134C107.376 161.46 109.312 164.968 111.699 164.968Z" fill="#121D30"/>
<path d="M161.421 157.134C161.421 161.46 159.485 164.968 157.098 164.968C154.71 164.968 152.775 161.46 152.775 157.134C152.775 155.245 153.144 153.512 153.758 152.159C154.551 150.413 155.753 149.3 157.098 149.3C159.486 149.3 161.421 152.807 161.421 157.134Z" fill="#121D30"/>
<path d="M155.469 146.616C158.82 142.923 161.52 142.838 162.391 148.607L155.469 146.616Z" fill="#121D30"/>
<path d="M111.822 140.722C108.471 137.029 105.77 136.945 104.899 142.713L111.822 140.722Z" fill="#121D30"/>
<path d="M186.227 138.285C183.636 137.617 181.622 135.715 181.622 135.715L179.01 139.899C182.868 142.6 185.298 142.082 186.641 141.564L186.227 138.285Z" fill="#FFB9AB"/>
<path d="M181.622 135.716C181.622 135.716 179.286 134.897 177.292 135.592L176.263 138.357C176.263 138.357 178.423 138.211 179.591 138.968C179.591 138.968 177.278 138.827 176.188 139.539L176.639 140.303C176.639 140.303 178.761 139.943 180.752 140.759L181.622 135.716Z" fill="#FFB9AB"/>
<path d="M177.048 136.301C177.048 136.301 179.204 136.161 180.712 136.498" stroke="#121D30" stroke-width="0.75" stroke-miterlimit="10"/>
<path d="M176.628 137.377C176.628 137.377 178.562 137.115 180.35 137.71" stroke="#121D30" stroke-width="0.75" stroke-miterlimit="10"/>
<path d="M193.609 130.25L185.088 139.291L186.337 141.671C191.514 139.845 196.309 136.573 199.058 131.998L193.609 130.25Z" fill="#FFB9AB"/>
<path d="M177.984 120.034C175.27 128.469 176.736 130.274 182.169 130.394L177.984 120.034Z" fill="#FFDFC7"/>
<path d="M193.423 130.25L197.116 131.112" stroke="#121D30" stroke-width="0.75" stroke-miterlimit="10"/>
<path d="M27.1796 207.447H206.82" stroke="#121D30" stroke-miterlimit="10"/>
</svg>
