<svg width="496" height="481" viewBox="0 0 496 481" fill="none" xmlns="http://www.w3.org/2000/svg">
<path d="M479.716 121.81L458.768 231.402C455.839 229.691 452.795 228.187 449.654 226.903C450.922 217.599 450.464 212.433 448.493 209.501C448.78 209.015 448.98 208.482 449.082 207.926C449.329 206.62 449.05 205.268 448.303 204.169C447.553 203.069 446.4 202.312 445.095 202.064C443.788 201.815 442.437 202.095 441.338 202.843C440.236 203.591 439.479 204.745 439.231 206.051C439.205 206.202 439.179 206.361 439.161 206.51C435.281 208.252 432.737 214.193 430.175 221.323L430.123 221.843C414.331 219.961 398.351 223.192 384.53 231.061C383.465 212.233 390.04 187.517 384.238 179.245C384.535 178.759 384.738 178.222 384.837 177.662C384.975 176.944 384.955 176.205 384.775 175.497C384.598 174.788 384.267 174.127 383.806 173.56C383.345 172.993 382.767 172.533 382.111 172.213C381.452 171.893 380.734 171.72 380.005 171.707C379.273 171.694 378.549 171.841 377.883 172.137C377.213 172.433 376.62 172.872 376.138 173.422C375.659 173.973 375.305 174.622 375.099 175.323C374.896 176.025 374.849 176.763 374.961 177.485C361.812 185.372 359.666 234.537 342.546 231.774C325.311 228.983 350.855 158.966 338.065 143.151C338.458 142.586 338.724 141.943 338.846 141.265C338.968 140.619 338.966 139.954 338.83 139.309C338.698 138.665 338.44 138.053 338.07 137.508C337.7 136.963 337.226 136.497 336.677 136.135C336.125 135.774 335.51 135.524 334.865 135.4C334.216 135.277 333.552 135.282 332.907 135.415C332.264 135.548 331.652 135.807 331.105 136.177C330.561 136.547 330.094 137.02 329.733 137.57C329.371 138.12 329.121 138.736 328.998 139.383C328.91 139.841 328.886 140.309 328.928 140.773C309.959 150.366 308.912 252.811 281.575 248.225C254.729 243.726 284.452 162.664 271.303 146.582C271.399 146.329 271.472 146.067 271.524 145.801C271.646 145.154 271.644 144.489 271.508 143.843C271.376 143.198 271.115 142.585 270.745 142.04C270.376 141.495 269.902 141.028 269.35 140.666C268.8 140.304 268.183 140.054 267.538 139.931C266.889 139.807 266.223 139.813 265.58 139.946C264.934 140.079 264.319 140.339 263.775 140.709C263.231 141.079 262.762 141.553 262.4 142.104C262.038 142.655 261.788 143.271 261.666 143.919C261.622 144.157 261.596 144.398 261.585 144.64C242.989 152.811 232.688 219.747 221.835 218.305L248.717 77.6514L479.716 121.81ZM309.975 101.726C310.175 100.678 310.061 99.5941 309.644 98.6114C309.23 97.6284 308.532 96.7911 307.639 96.2049C306.749 95.6186 305.702 95.31 304.634 95.3178C303.569 95.3259 302.528 95.6501 301.645 96.2495C300.762 96.8491 300.078 97.6967 299.677 98.6856C299.276 99.6745 299.177 100.76 299.393 101.805C299.609 102.85 300.13 103.808 300.89 104.556C301.65 105.305 302.614 105.812 303.663 106.012C305.069 106.276 306.519 105.973 307.702 105.17C308.884 104.367 309.701 103.129 309.975 101.726ZM287.4 97.404C287.6 96.3557 287.485 95.2717 287.069 94.289C286.655 93.3061 285.957 92.4687 285.064 91.8826C284.173 91.2962 283.127 90.9877 282.059 90.9955C280.994 91.0035 279.953 91.3277 279.07 91.9271C278.187 92.5268 277.502 93.3743 277.101 94.3633C276.7 95.3522 276.601 96.4377 276.818 97.4829C277.034 98.5278 277.555 99.4852 278.315 100.234C279.075 100.983 280.039 101.49 281.088 101.69C282.494 101.958 283.947 101.658 285.132 100.854C286.314 100.05 287.131 98.8093 287.4 97.404ZM264.83 93.0947C265.03 92.0469 264.913 90.9637 264.496 89.982C264.082 89.0001 263.382 88.1638 262.491 87.5785C261.601 86.9931 260.554 86.6853 259.489 86.6939C258.422 86.7025 257.383 87.027 256.5 87.6266C255.62 88.226 254.935 89.0736 254.534 90.062C254.133 91.0504 254.037 92.1352 254.253 93.1795C254.469 94.2237 254.99 95.1803 255.747 95.9287C256.508 96.677 257.474 97.1829 258.521 97.3832C259.927 97.6488 261.38 97.3465 262.562 96.5424C263.744 95.7386 264.559 94.4989 264.83 93.0947Z" fill="white"/>
<path d="M473.948 243.106C487.896 257.055 495.734 275.977 495.734 295.704C495.734 315.43 487.896 334.352 473.948 348.301C459.999 362.25 441.077 370.087 421.35 370.087C401.624 370.087 382.702 362.25 368.753 348.301L421.35 295.704L473.948 243.106Z" fill="#FFEDDF"/>
<path d="M473.948 243.109L421.35 295.701L368.753 243.104C379.14 232.729 392.362 225.655 406.756 222.772C421.152 219.889 436.077 221.326 449.659 226.9C452.799 228.185 455.843 229.689 458.772 231.4C464.316 234.63 469.417 238.566 473.948 243.109Z" fill="black"/>
<path d="M448.508 209.5C450.479 212.432 450.938 217.598 449.67 226.902C443.42 224.332 436.851 222.629 430.141 221.84L430.193 221.319C432.755 214.19 435.299 208.248 439.179 206.506C439.069 207.645 439.353 208.788 439.983 209.744C440.613 210.7 441.551 211.411 442.639 211.761C443.73 212.11 444.907 212.076 445.975 211.665C447.042 211.253 447.938 210.488 448.511 209.498L448.508 209.5Z" fill="white"/>
<path d="M445.108 202.066C446.415 202.314 447.569 203.072 448.316 204.171C449.063 205.27 449.342 206.621 449.094 207.927C448.993 208.483 448.792 209.016 448.506 209.503C447.269 207.784 445.418 206.606 443.337 206.211C441.957 205.822 440.483 205.928 439.171 206.511C439.189 206.362 439.215 206.203 439.244 206.052C439.366 205.405 439.614 204.788 439.976 204.237C440.338 203.686 440.804 203.212 441.348 202.841C441.892 202.471 442.507 202.212 443.15 202.079C443.796 201.946 444.462 201.941 445.108 202.066Z" fill="black"/>
<path d="M448.503 209.5C447.93 210.491 447.034 211.255 445.966 211.667C444.899 212.079 443.722 212.113 442.631 211.763C441.542 211.414 440.605 210.702 439.975 209.746C439.345 208.79 439.061 207.648 439.17 206.509C440.483 205.926 441.957 205.82 443.337 206.209C445.417 206.604 447.266 207.782 448.503 209.5Z" fill="black"/>
<path d="M421.352 295.697L368.754 348.294C361.844 341.389 356.363 333.189 352.621 324.165C348.882 315.14 346.955 305.466 346.955 295.697C346.955 285.927 348.882 276.254 352.621 267.229C356.363 258.204 361.844 250.005 368.754 243.1L421.352 295.697Z" fill="#6F7881"/>
<path d="M380.867 171.807C381.515 171.93 382.13 172.179 382.682 172.54C383.231 172.901 383.708 173.367 384.077 173.912C384.447 174.457 384.707 175.069 384.84 175.714C384.973 176.359 384.978 177.024 384.853 177.671C384.754 178.231 384.551 178.768 384.254 179.254C383.356 177.912 381.971 176.972 380.39 176.632C379.476 176.407 378.526 176.368 377.596 176.515C376.669 176.664 375.779 176.996 374.98 177.494C374.855 176.701 374.925 175.89 375.18 175.129C375.435 174.368 375.87 173.68 376.448 173.123C377.024 172.565 377.727 172.155 378.497 171.926C379.265 171.697 380.078 171.656 380.867 171.807Z" fill="black"/>
<path d="M384.253 179.253C390.054 187.517 383.472 212.233 384.545 231.069C374.926 236.555 366.651 244.117 360.324 253.204C353.996 262.289 349.773 272.673 347.963 283.596L301.641 274.743L214.239 258.037L220.964 222.838L221.837 218.315C232.689 219.758 242.987 152.821 261.61 144.653C261.558 145.848 261.936 147.022 262.675 147.964C263.412 148.905 264.464 149.551 265.636 149.786C266.81 150.02 268.028 149.828 269.07 149.244C270.114 148.659 270.916 147.721 271.328 146.598C284.477 162.679 254.754 243.742 281.6 248.241C308.94 252.827 309.981 150.382 328.953 140.789C329.047 141.814 329.455 142.786 330.122 143.571C330.786 144.356 331.679 144.916 332.676 145.176C333.671 145.436 334.723 145.383 335.689 145.023C336.652 144.663 337.483 144.015 338.066 143.166C350.856 158.982 325.307 228.999 342.547 231.79C359.668 234.553 361.816 185.387 374.965 177.5C375.121 178.524 375.59 179.475 376.311 180.221C377.03 180.966 377.962 181.47 378.98 181.664C379.998 181.857 381.05 181.729 381.993 181.299C382.935 180.868 383.719 180.156 384.24 179.261L384.253 179.253Z" fill="white"/>
<path d="M380.388 176.628C381.968 176.968 383.354 177.908 384.252 179.25C383.731 180.146 382.947 180.858 382.005 181.288C381.062 181.719 380.01 181.846 378.992 181.653C377.974 181.46 377.042 180.956 376.323 180.21C375.602 179.464 375.133 178.514 374.977 177.49C375.776 176.992 376.667 176.66 377.596 176.512C378.523 176.364 379.474 176.403 380.388 176.628Z" fill="black"/>
<path d="M334.884 135.404C336.191 135.656 337.344 136.414 338.092 137.514C338.839 138.615 339.12 139.966 338.873 141.273C338.745 141.951 338.474 142.594 338.079 143.158C336.85 141.594 335.089 140.535 333.131 140.182C331.707 139.901 330.231 140.112 328.942 140.781C328.9 140.317 328.924 139.848 329.012 139.391C329.134 138.743 329.384 138.126 329.746 137.575C330.108 137.023 330.574 136.549 331.121 136.178C331.665 135.808 332.28 135.549 332.926 135.416C333.571 135.283 334.235 135.279 334.884 135.404Z" fill="black"/>
<path d="M338.076 143.16C337.493 144.008 336.662 144.657 335.699 145.017C334.732 145.376 333.681 145.43 332.686 145.17C331.689 144.91 330.796 144.349 330.132 143.564C329.465 142.779 329.056 141.808 328.962 140.782C330.251 140.114 331.728 139.903 333.152 140.184C335.102 140.541 336.852 141.6 338.076 143.16Z" fill="black"/>
<path d="M305.687 95.4092C306.736 95.6084 307.702 96.1148 308.465 96.8639C309.228 97.6131 309.749 98.5715 309.968 99.6177C310.184 100.664 310.085 101.751 309.684 102.741C309.283 103.732 308.598 104.581 307.713 105.181C306.83 105.782 305.789 106.107 304.721 106.115C303.651 106.123 302.604 105.814 301.711 105.227C300.818 104.639 300.12 103.801 299.703 102.817C299.289 101.832 299.175 100.747 299.375 99.6977C299.649 98.2942 300.464 97.0556 301.646 96.252C302.831 95.4487 304.281 95.1457 305.687 95.4092Z" fill="#FFEDDF"/>
<path d="M283.109 91.0916C284.158 91.2913 285.121 91.7975 285.884 92.5461C286.645 93.2949 287.165 94.2521 287.382 95.2973C287.598 96.3422 287.499 97.428 287.098 98.4172C286.699 99.4064 286.012 100.254 285.129 100.854C284.247 101.454 283.208 101.778 282.14 101.786C281.072 101.794 280.026 101.486 279.135 100.899C278.242 100.313 277.544 99.4756 277.13 98.4927C276.714 97.5097 276.599 96.4255 276.8 95.3775C277.068 93.9727 277.883 92.7322 279.068 91.9284C280.25 91.1249 281.703 90.8236 283.109 91.0916Z" fill="#FFEDDF"/>
<path d="M265.606 324.021L281.651 409.073L268.908 411.476L252.871 326.425L265.606 324.021Z" fill="#6F7881"/>
<path d="M267.555 139.936C268.862 140.187 270.016 140.946 270.763 142.047C271.51 143.148 271.792 144.5 271.544 145.808C271.492 146.074 271.419 146.335 271.323 146.589C270.188 145.155 268.547 144.207 266.737 143.938C264.996 143.667 263.209 143.913 261.605 144.644C261.616 144.402 261.642 144.161 261.686 143.923C261.936 142.616 262.696 141.463 263.795 140.715C264.897 139.967 266.248 139.688 267.555 139.936Z" fill="black"/>
<path d="M266.739 143.941C268.549 144.21 270.189 145.158 271.324 146.592C270.913 147.715 270.111 148.653 269.067 149.237C268.025 149.822 266.807 150.014 265.632 149.779C264.461 149.545 263.409 148.898 262.672 147.957C261.932 147.016 261.555 145.842 261.607 144.647C263.211 143.916 264.997 143.67 266.739 143.941Z" fill="black"/>
<path d="M256.91 277.918L244.17 280.321L252.874 326.451L265.612 324.047L256.91 277.918Z" fill="#FFEDDF"/>
<path d="M260.543 86.7798C261.592 86.9795 262.556 87.4857 263.319 88.2343C264.079 88.9829 264.6 89.9403 264.816 90.9855C265.032 92.0304 264.933 93.1162 264.532 94.1054C264.134 95.0943 263.446 95.9424 262.564 96.5423C261.681 97.1419 260.642 97.4664 259.574 97.4745C258.507 97.4825 257.46 97.1737 256.57 96.5876C255.676 96.0012 254.979 95.1638 254.565 94.1809C254.148 93.1979 254.033 92.1137 254.234 91.0657C254.505 89.6619 255.32 88.4225 256.502 87.6192C257.687 86.816 259.14 86.5139 260.543 86.7798Z" fill="#FFEDDF"/>
<path d="M238.867 380.195L245.598 415.868V415.876L232.863 418.271L226.13 382.596L238.867 380.195Z" fill="#6F7881"/>
<path d="M220.866 284.71L208.127 287.113L226.144 382.611L238.883 380.208L220.866 284.71Z" fill="#FFEDDF"/>
<path d="M197.444 358.488L209.546 422.67L196.809 425.073L184.698 360.892L197.433 358.488H197.444Z" fill="#6F7881"/>
<path d="M184.809 291.492L197.448 358.491H197.437L184.702 360.895L172.063 293.896L184.809 291.492Z" fill="#FFEDDF"/>
<path d="M180.698 85.2512C184.561 99.8909 183.462 115.398 177.573 129.347C167.435 152.916 164.753 179.023 169.89 204.16L170.163 205.483C170.854 208.756 170.268 212.17 168.526 215.025C166.783 217.881 164.016 219.963 160.789 220.845L158.631 221.408L158.605 221.312L132.694 122.421C130.811 132.524 125.106 132.472 120.274 128.915C123.427 121.785 122.784 110.256 116.225 111.972C109.228 113.794 114.009 124.303 120.274 128.915C117.818 134.479 113.048 137.364 106.994 129.154L132.9 228.058L132.926 228.147L131.254 228.587C130.209 228.847 129.136 228.979 128.059 228.982C125.269 228.976 122.553 228.082 120.306 226.428C118.059 224.774 116.397 222.448 115.561 219.786C107.73 194.913 92.4681 173.036 71.8294 157.099C63.1832 150.386 56.2612 141.71 51.6373 131.788C47.0134 121.867 44.8207 110.986 45.241 100.048C45.6612 89.1106 48.6825 78.4302 54.0539 68.8929C59.4256 59.3556 66.9928 51.2358 76.1286 45.2067C85.2647 39.1775 95.7057 35.4124 106.587 34.2237C117.468 33.0351 128.476 34.457 138.698 38.3716C148.92 42.2862 158.062 48.5807 165.366 56.7333C172.67 64.8859 177.926 74.6619 180.698 85.2512Z" fill="#FFEDDF"/>
<path d="M174.05 237.96C174.274 238.798 174.328 239.672 174.212 240.531C174.096 241.391 173.811 242.217 173.373 242.967C172.936 243.714 172.354 244.371 171.662 244.894C170.971 245.415 170.182 245.798 169.343 246.014L136.607 254.585C135.769 254.804 134.895 254.856 134.037 254.739C133.178 254.619 132.351 254.333 131.603 253.895C130.855 253.458 130.201 252.875 129.677 252.185C129.154 251.495 128.772 250.706 128.554 249.867C128.409 249.323 128.335 248.761 128.335 248.196C128.337 246.738 128.822 245.321 129.713 244.165C130.605 243.011 131.853 242.183 133.264 241.814L165.997 233.242C167.428 232.868 168.942 232.983 170.301 233.567C171.219 233.966 172.034 234.569 172.684 235.33C173.334 236.091 173.801 236.991 174.05 237.96Z" fill="#6F7881"/>
<path d="M170.796 415.161L158.056 417.562L160.758 431.893L173.498 429.493L170.796 415.161Z" fill="#6F7881"/>
<path d="M170.802 245.739C171.086 246.835 171.23 247.96 171.231 249.093C171.227 252.009 170.258 254.842 168.474 257.152C166.691 259.459 164.194 261.112 161.373 261.852L150.328 264.739C148.65 265.179 146.903 265.286 145.185 265.052C143.467 264.815 141.812 264.245 140.315 263.37C138.818 262.492 137.509 261.331 136.462 259.948C135.414 258.566 134.65 256.99 134.213 255.314L170.802 245.739Z" fill="#6F7881"/>
<path d="M148.752 298.298L170.791 415.15L158.056 417.553L136.006 300.701L148.752 298.298Z" fill="#FFEDDF"/>
<path d="M170.69 225.083C170.829 225.63 170.9 226.193 170.9 226.757C170.901 228.218 170.417 229.637 169.526 230.793C168.634 231.949 167.384 232.777 165.971 233.147L133.239 241.719C132.242 241.982 131.196 242.008 130.188 241.789C129.18 241.573 128.237 241.12 127.437 240.469C126.67 239.848 126.051 239.064 125.624 238.173C125.198 237.283 124.975 236.308 124.972 235.321C124.974 233.863 125.458 232.446 126.35 231.291C127.241 230.137 128.49 229.31 129.901 228.939L131.257 228.588L132.929 228.148L158.629 221.422L160.787 220.86L162.633 220.375C164.326 219.934 166.125 220.181 167.635 221.064C169.145 221.946 170.244 223.392 170.69 225.083Z" fill="#6F7881"/>
<path d="M158.591 221.326L158.617 221.422L132.917 228.148L132.891 228.059L106.986 129.155C113.042 137.365 117.812 134.48 120.265 128.916C125.098 132.473 130.803 132.525 132.685 122.422L158.591 221.326Z" fill="#FFEDDF"/>
<path d="M116.221 111.973C122.78 110.257 123.423 121.786 120.27 128.916C114.005 124.304 109.224 113.803 116.221 111.973Z" fill="#FFEDDF"/>
<path d="M103.645 339.619C105.228 348.021 103.409 356.71 98.5876 363.774C93.7664 370.836 86.3377 375.695 77.9346 377.283L76.2629 368.401C80.5892 367.586 84.5947 365.558 87.8114 362.551C91.0279 359.546 93.3235 355.687 94.4298 351.424C95.5365 347.165 95.4081 342.676 94.0598 338.486C92.7118 334.294 90.1994 330.573 86.8162 327.756L92.8884 321.074C98.4949 325.839 102.293 332.385 103.645 339.619Z" fill="#6F7881"/>
<path d="M92.8879 321.074L86.8158 327.756C82.973 324.545 78.1947 322.665 73.1946 322.394C68.1945 322.124 63.2412 323.478 59.0746 326.256C54.9079 329.032 51.7516 333.083 50.0771 337.801C48.4025 342.522 48.2997 347.654 49.7841 352.437L49.6409 352.482L40.8764 354.138C40.6369 353.291 40.4442 352.437 40.2776 351.568C39.0384 345.011 39.8649 338.231 42.6431 332.161C45.4212 326.094 50.014 321.038 55.7878 317.692C61.5618 314.343 68.2317 312.872 74.878 313.476C81.524 314.083 87.8185 316.734 92.8931 321.069L92.8879 321.074Z" fill="#FFEDDF"/>
<path d="M84.9236 431.348L87.6263 445.669L63.4837 450.228L60.7809 435.897L84.9236 431.348Z" fill="black"/>
<path d="M80.9021 409.993L83.6048 424.314L59.4518 428.874L56.7516 414.545L80.9021 409.993Z" fill="black"/>
<path d="M79.7999 264.25C80.0343 265.505 79.8918 266.802 79.3901 267.973C78.8883 269.148 78.0499 270.148 76.981 270.845C75.9119 271.541 74.6602 271.908 73.3838 271.892C72.1074 271.879 70.8638 271.489 69.8098 270.767C68.7558 270.049 67.939 269.033 67.4622 267.848C66.9854 266.664 66.8701 265.364 67.1313 264.115C67.3922 262.867 68.0176 261.722 68.9284 260.829C69.8392 259.933 70.9948 259.329 72.2488 259.092C73.0833 258.933 73.9408 258.943 74.7719 259.118C75.6033 259.29 76.3923 259.626 77.0935 260.105C77.7947 260.584 78.3946 261.198 78.8591 261.909C79.3234 262.62 79.6432 263.414 79.7999 264.25Z" fill="#FFEDDF"/>
<path d="M76.8694 388.647L79.5721 402.966L55.419 407.525L52.7189 393.196L76.8694 388.647Z" fill="black"/>
<path d="M76.2633 368.401L77.9349 377.283C69.9802 378.783 61.7527 377.236 54.8864 372.948C48.0198 368.662 43.0174 361.949 40.8721 354.143L49.6365 352.487L49.7798 352.442C51.4639 357.89 55.0944 362.527 59.9787 365.472C64.8629 368.414 70.6596 369.458 76.2633 368.401Z" fill="black"/>
<path d="M52.7614 269.344C52.9979 270.599 52.8572 271.896 52.357 273.07C51.8569 274.245 51.0197 275.245 49.9511 275.945C48.8828 276.643 47.6311 277.01 46.3544 276.997C45.0778 276.987 43.8332 276.596 42.7783 275.877C41.7233 275.156 40.9052 274.141 40.4274 272.958C39.9496 271.774 39.8334 270.474 40.0938 269.225C40.3542 267.975 40.9791 266.829 41.8897 265.933C42.8005 265.04 43.9561 264.436 45.2103 264.197C46.0441 264.038 46.901 264.046 47.7319 264.22C48.5628 264.392 49.3512 264.728 50.0524 265.207C50.7536 265.683 51.3538 266.295 51.8188 267.006C52.2836 267.717 52.6039 268.511 52.7614 269.344Z" fill="#FFEDDF"/>
<path d="M25.7232 274.453C25.9578 275.708 25.8151 277.005 25.3133 278.177C24.8116 279.351 23.9731 280.351 22.9043 281.049C21.8354 281.744 20.5835 282.111 19.3071 282.096C18.0309 282.083 16.7871 281.692 15.7331 280.971C14.6792 280.252 13.8622 279.237 13.3855 278.052C12.9087 276.867 12.7935 275.568 13.0545 274.318C13.3155 273.071 13.9409 271.925 14.8518 271.032C15.7625 270.136 16.9181 269.532 18.1721 269.295C19.0066 269.136 19.8643 269.144 20.696 269.319C21.5274 269.493 22.3166 269.829 23.0181 270.308C23.7195 270.787 24.3194 271.399 24.7837 272.11C25.248 272.823 25.5672 273.618 25.7232 274.453Z" fill="#FFEDDF"/>
<path d="M160.782 220.858C164.009 219.975 166.776 217.893 168.518 215.037C170.261 212.182 170.846 208.768 170.156 205.495L169.882 204.172C164.746 179.035 167.427 152.928 177.566 129.359C182.542 117.509 184.104 104.503 182.073 91.8111C180.042 79.1198 174.5 67.2497 166.075 57.5439C157.649 47.8379 146.676 40.6831 134.396 36.8888C122.116 33.0945 109.019 32.8123 96.5871 36.0736C84.1552 39.3351 72.8834 46.01 64.0474 55.344C55.2115 64.6776 49.1634 76.2977 46.5877 88.8898C44.0117 101.482 45.0105 114.544 49.4717 126.597C53.9325 138.651 61.6771 149.217 71.8299 157.098C92.464 173.037 107.721 194.914 115.548 219.785C116.384 222.447 118.046 224.773 120.294 226.427C122.541 228.081 125.256 228.975 128.047 228.982C129.124 228.979 130.196 228.846 131.241 228.586" stroke="black" stroke-width="0.254595" stroke-linecap="round" stroke-linejoin="round"/>
<path d="M127.427 240.473C126.66 239.852 126.041 239.067 125.614 238.177C125.188 237.287 124.965 236.312 124.961 235.325C124.964 233.866 125.448 232.449 126.34 231.295C127.231 230.141 128.48 229.314 129.89 228.943L131.247 228.592L132.919 228.152L158.618 221.426L160.777 220.863L162.623 220.379C163.462 220.158 164.337 220.104 165.197 220.221C166.056 220.338 166.885 220.623 167.634 221.061C168.384 221.498 169.04 222.078 169.565 222.769C170.09 223.46 170.474 224.248 170.695 225.087C170.834 225.634 170.905 226.196 170.906 226.761C170.906 228.221 170.423 229.64 169.531 230.797C168.639 231.953 167.389 232.781 165.977 233.151L133.236 241.718C132.239 241.981 131.194 242.007 130.186 241.788C129.177 241.572 128.235 241.119 127.435 240.468" stroke="black" stroke-width="0.254595" stroke-linecap="round" stroke-linejoin="round"/>
<path d="M132.691 122.422L158.593 221.326" stroke="black" stroke-width="0.254595" stroke-linecap="round" stroke-linejoin="round"/>
<path d="M120.27 128.916C125.102 132.473 130.807 132.525 132.69 122.422" stroke="black" stroke-width="0.254595" stroke-linecap="round" stroke-linejoin="round"/>
<path d="M120.27 128.916C123.423 121.786 122.78 110.257 116.221 111.973C109.224 113.803 114.005 124.304 120.27 128.916Z" stroke="black" stroke-width="0.254595" stroke-linecap="round" stroke-linejoin="round"/>
<path d="M132.891 228.059L106.986 129.156C113.042 137.365 117.812 134.48 120.265 128.916" stroke="black" stroke-width="0.254595" stroke-linecap="round" stroke-linejoin="round"/>
<path d="M170.301 233.567C171.56 234.115 172.617 235.042 173.325 236.218C174.033 237.395 174.356 238.763 174.251 240.132C174.146 241.5 173.616 242.803 172.737 243.858C171.857 244.912 170.671 245.665 169.343 246.014L136.607 254.585C135.769 254.804 134.895 254.856 134.037 254.739C133.178 254.619 132.351 254.333 131.603 253.895C130.855 253.458 130.201 252.875 129.677 252.185C129.154 251.495 128.772 250.706 128.554 249.867C128.409 249.323 128.335 248.761 128.335 248.196C128.337 246.738 128.822 245.321 129.713 244.165C130.605 243.011 131.853 242.183 133.264 241.814L165.997 233.242C167.428 232.868 168.942 232.983 170.301 233.567Z" stroke="black" stroke-width="0.254595" stroke-linecap="round" stroke-linejoin="round"/>
<path d="M161.373 261.854L150.328 264.742C148.65 265.182 146.903 265.289 145.185 265.054C143.467 264.817 141.812 264.247 140.315 263.372C138.818 262.495 137.509 261.334 136.462 259.951C135.414 258.568 134.65 256.993 134.213 255.316L170.802 245.739C171.086 246.835 171.23 247.96 171.231 249.093C171.228 252.009 170.259 254.845 168.475 257.152C166.692 259.461 164.195 261.115 161.373 261.854Z" stroke="black" stroke-width="0.254595" stroke-linecap="round" stroke-linejoin="round"/>
<path d="M458.77 231.41C475.26 241.035 487.365 256.688 492.536 275.066C497.708 293.446 495.541 313.113 486.49 329.926C477.442 346.736 462.215 359.378 444.027 365.179C425.837 370.983 406.105 369.496 388.99 361.031C371.878 352.569 358.718 337.789 352.292 319.81C345.863 301.833 346.667 282.06 354.536 264.663C362.405 247.27 376.721 233.608 394.466 226.563C412.211 219.518 432 219.64 449.657 226.903C452.797 228.187 455.841 229.691 458.77 231.402" stroke="black" stroke-width="0.254595" stroke-linecap="round" stroke-linejoin="round"/>
<path d="M169.923 232.46L170.089 232.426L220.963 222.831" stroke="black" stroke-width="0.254595" stroke-linecap="round" stroke-linejoin="round"/>
<path d="M301.64 274.729L330.165 425.978L41.7525 480.39L1 264.317L127.429 240.463H127.437" stroke="black" stroke-width="0.254595" stroke-linecap="round" stroke-linejoin="round"/>
<path d="M37.264 290.822L208.799 258.459" stroke="black" stroke-width="0.254595" stroke-linecap="round" stroke-linejoin="round"/>
<path d="M25.7232 274.453C25.9578 275.708 25.8151 277.005 25.3133 278.177C24.8116 279.351 23.9731 280.351 22.9043 281.049C21.8354 281.744 20.5835 282.111 19.3071 282.096C18.0309 282.083 16.7871 281.692 15.7331 280.971C14.6792 280.252 13.8622 279.237 13.3855 278.052C12.9087 276.867 12.7935 275.568 13.0545 274.318C13.3155 273.071 13.9409 271.925 14.8518 271.032C15.7625 270.136 16.9181 269.532 18.1721 269.295C19.0066 269.136 19.8643 269.144 20.696 269.319C21.5274 269.493 22.3166 269.829 23.0181 270.308C23.7195 270.787 24.3194 271.399 24.7837 272.11C25.248 272.823 25.5672 273.618 25.7232 274.453Z" stroke="black" stroke-width="0.254595" stroke-linecap="round" stroke-linejoin="round"/>
<path d="M52.7614 269.344C52.9979 270.599 52.8572 271.896 52.3571 273.07C51.8569 274.245 51.0197 275.245 49.9511 275.945C48.8828 276.643 47.6311 277.01 46.3544 276.997C45.0778 276.987 43.8332 276.596 42.7783 275.877C41.7233 275.156 40.9052 274.141 40.4274 272.958C39.9496 271.774 39.8334 270.474 40.0938 269.225C40.3542 267.975 40.9791 266.829 41.8897 265.933C42.8005 265.04 43.9561 264.436 45.2103 264.197C46.0441 264.038 46.901 264.046 47.7319 264.22C48.5628 264.392 49.3512 264.728 50.0524 265.207C50.7536 265.683 51.3538 266.295 51.8188 267.006C52.2836 267.717 52.6039 268.511 52.7614 269.344Z" stroke="black" stroke-width="0.254595" stroke-linecap="round" stroke-linejoin="round"/>
<path d="M79.7999 264.25C80.0343 265.505 79.8918 266.802 79.3901 267.973C78.8883 269.148 78.0499 270.148 76.981 270.846C75.9119 271.541 74.6602 271.908 73.3838 271.892C72.1074 271.879 70.8638 271.489 69.8098 270.767C68.7558 270.049 67.939 269.033 67.4622 267.848C66.9854 266.664 66.8701 265.364 67.1313 264.115C67.3922 262.867 68.0176 261.722 68.9284 260.829C69.8392 259.933 70.9948 259.329 72.2488 259.092C73.0833 258.933 73.9408 258.943 74.7719 259.118C75.6033 259.29 76.3923 259.626 77.0935 260.105C77.7947 260.584 78.3946 261.198 78.8591 261.909C79.3234 262.62 79.6432 263.414 79.7999 264.25Z" stroke="black" stroke-width="0.254595" stroke-linecap="round" stroke-linejoin="round"/>
<path d="M347.963 283.585L301.641 274.732L214.239 258.026L220.964 222.828L221.837 218.305L248.716 77.6514L479.717 121.81L458.769 231.402V231.41" stroke="black" stroke-width="0.254595" stroke-linecap="round" stroke-linejoin="round"/>
<path d="M269.586 107.298L453.374 142.426" stroke="black" stroke-width="0.254595" stroke-linecap="round" stroke-linejoin="round"/>
<path d="M264.827 93.0971C264.626 94.1446 264.121 95.1093 263.371 95.8691C262.624 96.6289 261.666 97.1497 260.622 97.3658C259.577 97.5816 258.492 97.4832 257.505 97.0825C256.515 96.682 255.669 95.9972 255.07 95.115C254.471 94.2329 254.146 93.1929 254.138 92.1264C254.13 91.0601 254.437 90.0149 255.023 89.1236C255.609 88.2323 256.445 87.5348 257.427 87.1189C258.411 86.7034 259.494 86.588 260.541 86.788C261.236 86.9208 261.9 87.1892 262.491 87.5782C263.082 87.967 263.592 88.4688 263.991 89.0546C264.389 89.6405 264.668 90.299 264.811 90.9926C264.954 91.6863 264.959 92.4013 264.827 93.0971Z" stroke="black" stroke-width="0.254595" stroke-linecap="round" stroke-linejoin="round"/>
<path d="M287.398 97.4032C287.197 98.4512 286.692 99.4165 285.942 100.177C285.195 100.937 284.237 101.458 283.192 101.675C282.146 101.891 281.06 101.792 280.073 101.391C279.084 100.991 278.235 100.306 277.636 99.4232C277.037 98.5408 276.711 97.5001 276.704 96.4333C276.696 95.3662 277.003 94.3208 277.589 93.429C278.175 92.5372 279.013 91.8391 279.995 91.423C280.977 91.0071 282.06 90.8918 283.109 91.0915C283.807 91.2235 284.468 91.4915 285.062 91.8802C285.656 92.269 286.166 92.771 286.564 93.3574C286.963 93.9437 287.241 94.6028 287.385 95.2972C287.528 95.9914 287.53 96.7072 287.398 97.4032Z" stroke="black" stroke-width="0.254595" stroke-linecap="round" stroke-linejoin="round"/>
<path d="M309.974 101.731C309.771 102.778 309.263 103.742 308.513 104.501C307.764 105.259 306.808 105.779 305.761 105.993C304.717 106.208 303.631 106.108 302.644 105.706C301.658 105.304 300.809 104.619 300.212 103.736C299.614 102.853 299.288 101.813 299.283 100.746C299.275 99.6797 299.582 98.6348 300.168 97.7437C300.757 96.8527 301.592 96.1551 302.574 95.7396C303.558 95.3243 304.642 95.2092 305.688 95.4092C307.094 95.6802 308.336 96.4983 309.138 97.6836C309.943 98.8689 310.242 100.325 309.974 101.731Z" stroke="black" stroke-width="0.254595" stroke-linecap="round" stroke-linejoin="round"/>
<path d="M448.507 209.508C450.478 212.44 450.937 217.606 449.669 226.909" stroke="black" stroke-width="0.254595" stroke-linecap="round" stroke-linejoin="round"/>
<path d="M430.188 221.323C432.751 214.194 435.294 208.252 439.174 206.51" stroke="black" stroke-width="0.254595" stroke-linecap="round" stroke-linejoin="round"/>
<path d="M384.252 179.253C390.053 187.517 383.471 212.233 384.544 231.069" stroke="black" stroke-width="0.254595" stroke-linecap="round" stroke-linejoin="round"/>
<path d="M338.077 143.159C350.867 158.975 325.319 228.992 342.559 231.783C359.679 234.546 361.827 185.38 374.976 177.493" stroke="black" stroke-width="0.254595" stroke-linecap="round" stroke-linejoin="round"/>
<path d="M271.33 146.587C284.48 162.669 254.757 243.731 281.603 248.23C308.943 252.816 309.984 150.371 328.956 140.778" stroke="black" stroke-width="0.254595" stroke-linecap="round" stroke-linejoin="round"/>
<path d="M221.835 218.307C232.688 219.749 242.986 152.813 261.609 144.645" stroke="black" stroke-width="0.254595" stroke-linecap="round" stroke-linejoin="round"/>
<path d="M92.8897 321.076C96.7264 324.351 99.7414 328.479 101.692 333.132C103.643 337.782 104.475 342.826 104.122 347.859C103.769 352.889 102.24 357.769 99.6583 362.102C97.0766 366.435 93.5143 370.101 89.2576 372.809C85.0011 375.514 80.1687 377.183 75.1495 377.683C70.1301 378.18 65.0639 377.496 60.3577 375.681C55.6518 373.866 51.4373 370.97 48.0531 367.231C44.6691 363.49 42.2098 359.008 40.873 354.144C40.6335 353.298 40.4408 352.444 40.2741 351.574C39.035 345.018 39.8614 338.238 42.6397 332.168C45.4177 326.101 50.0106 321.045 55.7844 317.699C61.5583 314.35 68.2283 312.879 74.8746 313.483C81.5206 314.09 87.8153 316.74 92.8897 321.076Z" stroke="black" stroke-width="0.254595" stroke-linecap="round" stroke-linejoin="round"/>
<path d="M86.8159 327.756C90.8709 331.133 93.6546 335.789 94.7089 340.96C95.7632 346.128 95.025 351.505 92.6157 356.2C90.2066 360.895 86.2702 364.629 81.4549 366.787C76.6399 368.943 71.2333 369.399 66.1259 368.071C61.0185 366.746 56.5149 363.72 53.357 359.494C50.1994 355.265 48.5756 350.089 48.7537 344.816C48.9316 339.541 50.9006 334.487 54.3363 330.482C57.7718 326.475 62.4691 323.762 67.6544 322.783C71.0172 322.139 74.4813 322.251 77.7955 323.111C81.1097 323.97 84.1908 325.558 86.8159 327.756Z" stroke="black" stroke-width="0.254595" stroke-linecap="round" stroke-linejoin="round"/>
<path d="M76.2629 368.403L77.9346 377.285" stroke="black" stroke-width="0.254595" stroke-linecap="round" stroke-linejoin="round"/>
<path d="M86.8186 327.756L92.8907 321.074" stroke="black" stroke-width="0.254595" stroke-linecap="round" stroke-linejoin="round"/>
<path d="M49.6345 352.486L40.8701 354.142L40.7633 354.161" stroke="black" stroke-width="0.254595" stroke-linecap="round" stroke-linejoin="round"/>
<path d="M281.65 409.074L308.222 404.059L284.009 275.693" stroke="black" stroke-width="0.254595" stroke-linecap="round" stroke-linejoin="round"/>
<path d="M245.6 415.868L268.91 411.476" stroke="black" stroke-width="0.254595" stroke-linecap="round" stroke-linejoin="round"/>
<path d="M232.863 418.273L245.599 415.878" stroke="black" stroke-width="0.254595" stroke-linecap="round" stroke-linejoin="round"/>
<path d="M209.55 422.673L232.865 418.28" stroke="black" stroke-width="0.254595" stroke-linecap="round" stroke-linejoin="round"/>
<path d="M173.497 429.48L196.811 425.079" stroke="black" stroke-width="0.254595" stroke-linecap="round" stroke-linejoin="round"/>
<path d="M136.645 436.428L160.762 431.879" stroke="black" stroke-width="0.254595" stroke-linecap="round" stroke-linejoin="round"/>
<path d="M79.5721 402.966L55.419 407.525L52.7189 393.196L76.8694 388.647L79.5721 402.966Z" stroke="black" stroke-width="0.254595" stroke-linecap="round" stroke-linejoin="round"/>
<path d="M83.6048 424.314L59.4518 428.874L56.7516 414.545L80.9021 409.993L83.6048 424.314Z" stroke="black" stroke-width="0.254595" stroke-linecap="round" stroke-linejoin="round"/>
<path d="M87.6263 445.669L63.4837 450.228L60.7809 435.897L84.9236 431.348L87.6263 445.669Z" stroke="black" stroke-width="0.254595" stroke-linecap="round" stroke-linejoin="round"/>
<path d="M173.494 429.479L160.758 431.882L158.056 417.553L136.006 300.701L148.752 298.298L170.791 415.15L173.494 429.479Z" stroke="black" stroke-width="0.254595" stroke-linecap="round" stroke-linejoin="round"/>
<path d="M209.55 422.673L196.812 425.076L184.702 360.895L172.063 293.896L184.809 291.492L197.448 358.491L209.55 422.673Z" stroke="black" stroke-width="0.254595" stroke-linecap="round" stroke-linejoin="round"/>
<path d="M245.598 415.873L232.862 418.276V418.269L226.129 382.594L208.113 287.096L220.848 284.692L238.867 380.193L245.598 415.865V415.873Z" stroke="black" stroke-width="0.254595" stroke-linecap="round" stroke-linejoin="round"/>
<path d="M281.65 409.072L268.907 411.476L252.87 326.424L244.163 280.295L256.901 277.892L265.606 324.021L281.65 409.072Z" stroke="black" stroke-width="0.254595" stroke-linecap="round" stroke-linejoin="round"/>
<path d="M158.056 417.552L170.791 415.148" stroke="black" stroke-width="0.254595" stroke-linecap="round" stroke-linejoin="round"/>
<path d="M184.698 360.892L197.433 358.488" stroke="black" stroke-width="0.254595" stroke-linecap="round" stroke-linejoin="round"/>
<path d="M226.13 382.596L238.867 380.195" stroke="black" stroke-width="0.254595" stroke-linecap="round" stroke-linejoin="round"/>
<path d="M252.871 326.425L265.606 324.021" stroke="black" stroke-width="0.254595" stroke-linecap="round" stroke-linejoin="round"/>
<path d="M473.941 243.106L421.349 295.699L368.76 348.288" stroke="black" stroke-width="0.254595" stroke-linecap="round" stroke-linejoin="round"/>
<path d="M368.76 243.106L421.349 295.699" stroke="black" stroke-width="0.254595" stroke-linecap="round" stroke-linejoin="round"/>
<path d="M92.2923 24.5907L85.9286 1" stroke="black" stroke-width="0.254595" stroke-linecap="round" stroke-linejoin="round"/>
<path d="M119.869 24.5913L122.439 3.44043" stroke="black" stroke-width="0.254595" stroke-linecap="round" stroke-linejoin="round"/>
<path d="M67.9463 40.8195L53.9351 24.5898" stroke="black" stroke-width="0.254595" stroke-linecap="round" stroke-linejoin="round"/>
</svg>
