<svg width="23" height="20" viewBox="0 0 23 20" fill="none" xmlns="http://www.w3.org/2000/svg">
<g clip-path="url(#clip0_2708_1834)">
<path d="M11.3708 0.3125C5.38498 0.3125 0.535156 4.64844 0.535156 10C0.535156 15.3516 5.38498 19.6875 11.3708 19.6875C17.3566 19.6875 22.2065 15.3516 22.2065 10C22.2065 4.64844 17.3566 0.3125 11.3708 0.3125ZM17.6625 11.0938C17.6625 11.3516 17.4265 11.5625 17.1382 11.5625H13.1185V15.1562C13.1185 15.4141 12.8826 15.625 12.5942 15.625H10.1474C9.85906 15.625 9.62312 15.4141 9.62312 15.1562V11.5625H5.60344C5.31508 11.5625 5.07914 11.3516 5.07914 11.0938V8.90625C5.07914 8.64844 5.31508 8.4375 5.60344 8.4375H9.62312V4.84375C9.62312 4.58594 9.85906 4.375 10.1474 4.375H12.5942C12.8826 4.375 13.1185 4.58594 13.1185 4.84375V8.4375H17.1382C17.4265 8.4375 17.6625 8.64844 17.6625 8.90625V11.0938Z" fill="black"/>
</g>
<defs>
<clipPath id="clip0_2708_1834">
<rect width="22.3704" height="20" fill="white" transform="translate(0.185547)"/>
</clipPath>
</defs>
</svg>
