<svg width="70" height="70" viewBox="0 0 70 70" fill="none" xmlns="http://www.w3.org/2000/svg">
<rect width="70" height="70" fill="black"/>
<rect x="3.5" y="3.5" width="63" height="63" fill="#AE0BFF"/>
<mask id="mask0_0_7" style="mask-type:luminance" maskUnits="userSpaceOnUse" x="3" y="3" width="64" height="64">
<rect x="3.5" y="3.5" width="63" height="63" fill="white"/>
</mask>
<g mask="url(#mask0_0_7)">
<path fill-rule="evenodd" clip-rule="evenodd" d="M57.9185 59.1911C56.0614 56.5047 53.3235 54.552 50.1788 53.6711L42.8748 51.625V46.3752C45.9625 44.0557 47.9902 40.4057 48.1148 36.277C48.5464 36.4672 49.0227 36.575 49.525 36.575C51.4579 36.575 53.025 35.008 53.025 33.075C53.025 31.1419 51.4579 29.575 49.525 29.575C49.0268 29.575 48.5539 29.6805 48.125 29.8681V28.875C48.125 21.6261 42.2487 15.75 35 15.75H34.9998C27.7511 15.75 21.875 21.6261 21.875 28.875V29.8681C21.4459 29.6805 20.973 29.575 20.475 29.575C18.5419 29.575 16.975 31.1419 16.975 33.075C16.975 35.008 18.5419 36.575 20.475 36.575C20.9771 36.575 21.4534 36.4674 21.8851 36.277C22.0096 40.4057 24.0373 44.0557 27.1248 46.3752V51.625L19.821 53.6711C16.6763 54.552 13.9384 56.5047 12.0813 59.1911L7 66.542V71.75H63V66.542L57.9185 59.1911Z" fill="#F5CDD3"/>
<path fill-rule="evenodd" clip-rule="evenodd" d="M34.9999 48.9999C33.3815 48.9999 31.8324 48.7052 30.4009 48.1696C32.4368 49.4702 34.8546 50.2249 37.4499 50.2249C39.3854 50.2249 41.221 49.8027 42.8749 49.0507V46.3751C40.6813 48.0229 37.9548 48.9999 34.9999 48.9999Z" fill="#F48C9D"/>
<path d="M22.3316 33.5858C22.3762 33.4232 22.4002 33.2519 22.4002 33.0751C22.4002 32.012 21.5383 31.1501 20.4752 31.1501C20.2094 31.1501 19.9561 31.204 19.7258 31.3013" stroke="#00004D" stroke-linecap="round" stroke-linejoin="round"/>
<path d="M47.6685 33.5858C47.6239 33.4232 47.6001 33.2519 47.6001 33.0751C47.6001 32.012 48.462 31.1501 49.5251 31.1501C49.7907 31.1501 50.044 31.204 50.2744 31.3013" stroke="#00004D" stroke-linecap="round" stroke-linejoin="round"/>
<path fill-rule="evenodd" clip-rule="evenodd" d="M38.5 40.9517C38.5 42.8847 36.933 44.4517 35 44.4517C33.067 44.4517 31.5 42.8847 31.5 40.9517H38.5Z" fill="black"/>
<path fill-rule="evenodd" clip-rule="evenodd" d="M42.175 33.6C42.175 34.3731 41.5482 35 40.775 35C40.0019 35 39.375 34.3731 39.375 33.6C39.375 32.8268 40.0019 32.2 40.775 32.2C41.5482 32.2 42.175 32.8268 42.175 33.6" fill="#00004D"/>
<path fill-rule="evenodd" clip-rule="evenodd" d="M30.625 33.6C30.625 34.3731 29.9981 35 29.225 35C28.4518 35 27.825 34.3731 27.825 33.6C27.825 32.8268 28.4518 32.2 29.225 32.2C29.9981 32.2 30.625 32.8268 30.625 33.6" fill="#00004D"/>
<path d="M34.9998 32.2L36.7498 38.15L34.2998 38.5" stroke="#00004D" stroke-linecap="round" stroke-linejoin="round"/>
<path fill-rule="evenodd" clip-rule="evenodd" d="M47.1039 30.5512C47.6131 30.0626 48.2692 29.7287 49 29.6185V28.8749V22.7013C49 20.0497 47.5018 17.6259 45.1306 16.4401L36.5652 12.1577C35.5798 11.6649 34.4201 11.6649 33.4348 12.1577L24.8694 16.4401C22.4982 17.6259 21 20.0497 21 22.7013V29.6185C21.7308 29.7287 22.3869 30.0626 22.8961 30.5512V30.4753C22.8961 28.7405 23.6695 27.0959 25.0056 25.9893C26.8265 24.481 29.3785 24.2231 31.4643 25.3364C33.6739 26.5157 36.3262 26.5157 38.5357 25.3364C40.6215 24.2231 43.1736 24.481 44.9944 25.9893C46.3306 27.0959 47.1039 28.7405 47.1039 30.4753V30.5512Z" fill="#FFCA00"/>
<path fill-rule="evenodd" clip-rule="evenodd" d="M63 66.542L57.9185 59.1911C56.0616 56.5049 53.3237 54.5521 50.1788 53.6711L49.7919 53.5626L48.2267 50.5246C47.8413 49.7765 47.1994 49.1923 46.4184 48.8791L42.875 47.4576V51.667C42.8745 51.6681 42.8743 51.6688 42.8738 51.6698L35.0448 59.499C35.0297 59.499 35.015 59.5 35 59.5L27.125 51.625V47.4138L23.5816 48.8355C22.8006 49.1488 22.1587 49.7329 21.7733 50.4809L20.1819 53.57L19.821 53.6711C16.6763 54.5521 13.9384 56.5049 12.0813 59.1911L7 66.542V71.75H63V66.542Z" fill="#80C43B"/>
<path d="M20.1819 53.5699L35 62.1465L45.7259 55.9701" stroke="#00004D" stroke-linecap="round" stroke-linejoin="round"/>
<path fill-rule="evenodd" clip-rule="evenodd" d="M30.975 69.1465V69.1465C30.685 69.1465 30.45 68.9113 30.45 68.6215V59.5264L31.5 60.1207V68.6215C31.5 68.9113 31.2649 69.1465 30.975 69.1465" fill="#00004D"/>
<path fill-rule="evenodd" clip-rule="evenodd" d="M39.025 65.4715V65.4715C38.735 65.4715 38.5 65.2363 38.5 64.9465V60.131L39.55 59.5264V64.9465C39.55 65.2363 39.315 65.4715 39.025 65.4715" fill="#00004D"/>
<path d="M25.7251 50.225L27.1251 51.625" stroke="#00004D" stroke-linecap="round" stroke-linejoin="round"/>
<path fill-rule="evenodd" clip-rule="evenodd" d="M43.405 30.1H38.155C37.388 30.1 36.7379 30.5942 36.5016 31.2809C36.2775 30.989 35.9264 30.8 35.53 30.8H34.3875C33.9913 30.8 33.6399 30.989 33.416 31.2809C33.1794 30.5942 32.5295 30.1 31.7625 30.1H26.5125C25.5459 30.1 24.7625 30.8836 24.7625 31.85V33.075C24.7625 35.4914 26.7212 37.45 29.1375 37.45C31.5537 37.45 33.5125 35.4914 33.5125 33.075C33.5125 32.3984 34.0609 31.85 34.7375 31.85H35.18C35.8566 31.85 36.405 32.3984 36.405 33.075C36.405 35.4914 38.3636 37.45 40.78 37.45C43.1963 37.45 45.155 35.4914 45.155 33.075V31.85C45.155 30.8836 44.3714 30.1 43.405 30.1" fill="#000066"/>
</g>
</svg>
