<svg width="71" height="72" viewBox="0 0 71 72" fill="none" xmlns="http://www.w3.org/2000/svg">
<rect x="0.539551" y="1.13135" width="70" height="70" transform="rotate(-0.169476 0.539551 1.13135)" fill="#001732"/>
<rect x="4.0498" y="4.62097" width="63" height="63" transform="rotate(-0.169476 4.0498 4.62097)" fill="#FFCA00"/>
<mask id="mask0_0_4" style="mask-type:luminance" maskUnits="userSpaceOnUse" x="4" y="4" width="64" height="64">
<rect x="4.0498" y="4.62097" width="63" height="63" transform="rotate(-0.169476 4.0498 4.62097)" fill="white"/>
</mask>
<g mask="url(#mask0_0_4)">
<path fill-rule="evenodd" clip-rule="evenodd" d="M58.633 60.1509C56.7679 57.47 54.0243 55.5255 50.877 54.6538L43.567 52.6293L43.5514 47.3795C46.6323 45.051 48.6492 41.395 48.7616 37.2659C49.1937 37.4548 49.6703 37.5612 50.1726 37.5597C52.1055 37.554 53.6679 35.9824 53.6622 34.0494C53.6565 32.1163 52.0848 30.554 50.1519 30.5598C49.6537 30.5612 49.1811 30.6681 48.7528 30.857L48.7498 29.8639C48.7284 22.6151 42.8347 16.7563 35.5861 16.7778L35.5859 16.7778C28.3372 16.7992 22.4785 22.6927 22.4999 29.9415L22.5029 30.9347C22.0732 30.7483 21.6001 30.6442 21.102 30.6457C19.169 30.6514 17.6067 32.223 17.6124 34.156C17.6181 36.0891 19.1897 37.6514 21.1227 37.6456C21.6248 37.6442 22.1008 37.5351 22.532 37.3435C22.6686 41.4718 24.7071 45.1158 27.8015 47.4261L27.817 52.6759L20.5193 54.7436C17.3772 55.6339 14.6451 57.5946 12.796 60.2865L7.73642 67.6524L7.75182 72.8604L63.7516 72.6947L63.7362 67.4867L58.633 60.1509Z" fill="#B5683C"/>
<path fill-rule="evenodd" clip-rule="evenodd" d="M35.6841 50.0276C34.0657 50.0324 32.5158 49.7423 31.0827 49.2108C33.1225 50.5054 35.5425 51.253 38.1377 51.2453C40.0732 51.2396 41.9076 50.8119 43.5592 50.055L43.5513 47.3795C41.3626 49.0338 38.639 50.0189 35.6841 50.0276Z" fill="#A3420B"/>
<path d="M22.9704 34.651C23.0145 34.4882 23.038 34.3169 23.0375 34.1401C23.0343 33.077 22.1699 32.2177 21.1068 32.2208C20.8409 32.2216 20.5879 32.2762 20.3579 32.3742" stroke="#00004D" stroke-linecap="round" stroke-linejoin="round"/>
<path d="M48.3073 34.5759C48.2622 34.4135 48.2379 34.2422 48.2374 34.0655C48.2342 33.0024 49.0936 32.138 50.1567 32.1348C50.4223 32.134 50.6757 32.1872 50.9065 32.2838" stroke="#00004D" stroke-linecap="round" stroke-linejoin="round"/>
<path fill-rule="evenodd" clip-rule="evenodd" d="M39.1604 41.9689C39.1661 43.902 37.6038 45.4735 35.6707 45.4793C33.7377 45.485 32.1661 43.9227 32.1604 41.9896L39.1604 41.9689Z" fill="#001732"/>
<path d="M39.7512 34.6155C40.0193 33.9968 40.6348 33.5629 41.3524 33.5608C42.0701 33.5587 42.6881 33.9889 42.9599 34.6061" stroke="#00004D" stroke-linecap="round" stroke-linejoin="round"/>
<path fill-rule="evenodd" clip-rule="evenodd" d="M31.2638 34.6406C31.2661 35.4139 30.6411 36.0425 29.868 36.0447C29.0948 36.047 28.4661 35.4222 28.4639 34.6489C28.4616 33.8757 29.0866 33.247 29.8597 33.2448C30.6329 33.2425 31.2616 33.8675 31.2638 34.6406" fill="#00004D"/>
<path d="M35.6346 33.2277L37.4022 39.1725L34.9532 39.5297" stroke="#00004D" stroke-linecap="round" stroke-linejoin="round"/>
<path fill-rule="evenodd" clip-rule="evenodd" d="M31.4722 24.5671C29.6602 27.6841 26.9106 30.1862 23.6111 31.6976C23.0253 31.0998 22.227 30.7144 21.3391 30.6573L21.7902 27.7456L21.7902 27.7454C22.0777 25.8893 22.7304 24.1539 23.6717 22.6133C24.5411 21.1912 25.6584 19.9384 26.9621 18.9104C27.4718 18.5085 28.0091 18.1401 28.5724 17.8107C30.1537 16.8865 31.9322 16.2628 33.8302 16.0188C34.4044 15.945 34.9893 15.9045 35.5834 15.9027C38.141 15.8951 40.5386 16.5774 42.6056 17.7691C44.6168 18.9289 46.3137 20.5717 47.5346 22.5428C48.485 24.0777 49.1479 25.8093 49.4464 27.6638L49.9142 30.5693C48.9863 30.6349 48.1606 31.0631 47.5724 31.7111C41.3522 31.2476 35.7332 28.6166 31.4722 24.5671ZM27.8016 47.4216C24.71 45.1108 22.6686 41.4705 22.5319 37.3433C22.1008 37.535 21.6247 37.6441 21.1227 37.6455C20.829 37.6464 20.5456 37.6073 20.2729 37.5399L18.1872 51.0028L27.8121 50.9743L27.8016 47.4216ZM50.1725 37.5597C49.6705 37.5612 49.1936 37.455 48.7613 37.2658C48.6491 41.3937 46.6294 45.046 43.5515 47.375L43.5621 50.9276L53.187 50.8991L51.0217 37.449C50.7494 37.5179 50.4662 37.5588 50.1725 37.5597Z" fill="#00004D"/>
<path fill-rule="evenodd" clip-rule="evenodd" d="M63.736 67.4867L58.6329 60.1509C56.7679 57.4701 54.0243 55.5254 50.8767 54.6538L47.7711 53.7936C46.8115 59.5847 41.7914 64.0096 35.7256 64.0275C29.6598 64.0455 24.6136 59.6504 23.6198 53.865L20.5193 54.7436C17.377 55.6338 14.6449 57.5947 12.7957 60.2865L7.7362 67.6523L7.7516 72.8603L63.7514 72.6947L63.736 67.4867Z" fill="#2384F5"/>
</g>
</svg>
