<svg width="71" height="71" viewBox="0 0 71 71" fill="none" xmlns="http://www.w3.org/2000/svg">
<rect x="0.501709" y="0.767578" width="70" height="70" transform="rotate(-0.21959 0.501709 0.767578)" fill="black"/>
<rect x="4.01514" y="4.25415" width="63" height="63" transform="rotate(-0.21959 4.01514 4.25415)" fill="#F5F5F8"/>
<mask id="mask0_11_285" style="mask-type:luminance" maskUnits="userSpaceOnUse" x="4" y="4" width="64" height="64">
<rect x="4.01514" y="4.25415" width="63" height="63" transform="rotate(-0.21959 4.01514 4.25415)" fill="white"/>
</mask>
<g mask="url(#mask0_11_285)">
<path fill-rule="evenodd" clip-rule="evenodd" d="M58.6467 59.7364C56.7793 57.0571 54.0339 55.1149 50.8858 54.2461L43.5741 52.228L43.5539 46.9782C46.6327 44.6469 48.6465 40.9892 48.7552 36.86C49.1875 37.0485 49.6643 37.1545 50.1665 37.1526C52.0994 37.1452 53.6605 35.5722 53.6531 33.6392C53.6457 31.7062 52.0725 30.1452 50.1397 30.1526C49.6415 30.1546 49.169 30.2619 48.7408 30.4511L48.737 29.458C48.7092 22.2092 42.8104 16.3556 35.5618 16.3834L35.5616 16.3834C28.313 16.4112 22.4594 22.3098 22.4872 29.5586L22.491 30.5517C22.0612 30.3658 21.5879 30.2621 21.0899 30.264C19.1569 30.2714 17.5959 31.8443 17.6033 33.7774C17.6107 35.7104 19.1837 37.2713 21.1167 37.2639C21.6188 37.262 22.0947 37.1526 22.5257 36.9605C22.666 41.0888 24.7077 44.7309 27.8041 47.0385L27.8242 52.2883L20.5283 54.3624C17.3869 55.2554 14.6566 57.2185 12.8098 59.9121L7.75668 67.2823L7.77664 72.4903L63.7762 72.2757L63.7563 67.0677L58.6467 59.7364Z" fill="#FFCF83"/>
<path fill-rule="evenodd" clip-rule="evenodd" d="M35.6891 49.6331C34.0707 49.6393 32.5205 49.3505 31.087 48.8203C33.1279 50.1131 35.5486 50.8586 38.1438 50.8487C40.0793 50.8412 41.9132 50.4119 43.5642 49.6536L43.554 46.9781C41.3667 48.6343 38.644 49.6217 35.6891 49.6331Z" fill="#F7A74F"/>
<path d="M22.9617 34.2676C23.0057 34.1048 23.0291 33.9334 23.0284 33.7567C23.0243 32.6935 22.1591 31.835 21.096 31.839C20.8302 31.8401 20.5772 31.8949 20.3473 31.9931" stroke="#00004D" stroke-linecap="round" stroke-linejoin="round"/>
<path d="M48.2985 34.1705C48.2532 34.0081 48.2288 33.8368 48.2281 33.6601C48.224 32.597 49.0826 31.7318 50.1457 31.7277C50.4113 31.7267 50.6648 31.7796 50.8956 31.8761" stroke="#00004D" stroke-linecap="round" stroke-linejoin="round"/>
<path d="M37.8589 42.2762C37.3966 43.0135 36.5779 43.5049 35.6434 43.5085C34.7381 43.512 33.938 43.0567 33.4634 42.3612" stroke="#00004D" stroke-linecap="round" stroke-linejoin="round"/>
<path fill-rule="evenodd" clip-rule="evenodd" d="M30.3529 35.4464C31.2597 35.1123 31.7241 34.1062 31.3902 33.1994L28.1059 34.409C28.4398 35.316 29.4461 35.7805 30.3529 35.4464" fill="#00004D"/>
<path fill-rule="evenodd" clip-rule="evenodd" d="M40.8117 35.4063C39.9023 35.0792 39.43 34.0767 39.7571 33.1673L43.0506 34.3517C42.7235 35.2612 41.721 35.7334 40.8117 35.4063" fill="#00004D"/>
<path d="M35.5975 32.8334L37.3225 37.2193C37.683 38.1358 37.0097 39.128 36.025 39.1318L34.9216 39.136" stroke="#00004D" stroke-linecap="round" stroke-linejoin="round"/>
<path fill-rule="evenodd" clip-rule="evenodd" d="M41.8469 15.9796L37.9959 14.5634C37.6548 14.4382 37.3062 14.3417 36.9537 14.2713L36.9535 14.2365C36.9518 13.79 36.5885 13.4294 36.1421 13.4311L34.9588 13.4356C34.5125 13.4373 34.1518 13.8008 34.1536 14.2472L34.1537 14.282C33.8017 14.3551 33.4538 14.4543 33.1138 14.5821L29.2736 16.0278C25.1683 17.5734 22.4563 21.5082 22.4731 25.8947L22.4845 28.8583L35.6027 27.058L48.7343 28.7577L48.7229 25.7941C48.7061 21.4076 45.9641 17.4937 41.8469 15.9796" fill="#2384F5"/>
<path d="M35.5633 14.4834C35.5633 14.4834 27.6639 16.4502 27.7047 27.0824" stroke="#00004D" stroke-linecap="round" stroke-linejoin="round"/>
<path d="M35.5632 14.4834C35.5632 14.4834 39.1218 15.3406 41.4789 19.1112" stroke="#00004D" stroke-linecap="round" stroke-linejoin="round"/>
<path fill-rule="evenodd" clip-rule="evenodd" d="M22.4916 28.8541C24.4211 27.6525 26.5296 26.7582 28.7566 26.1496C30.9835 25.5457 33.3089 25.2715 35.5959 25.2634C37.883 25.254 40.2104 25.5104 42.4419 26.0972C44.6735 26.6887 46.7887 27.5668 48.7274 28.7536C48.9811 28.909 49.0609 29.2407 48.9056 29.4945C48.7959 29.6738 48.5981 29.7663 48.4022 29.7502L48.3954 29.7497C47.2731 29.6569 46.1847 29.5048 45.1071 29.3761C44.0305 29.2425 42.9704 29.1172 41.9163 29.0236C39.811 28.8264 37.727 28.7555 35.6093 28.7634C33.4917 28.7717 31.4083 28.8586 29.3045 29.072C28.2512 29.1736 27.1921 29.307 26.1166 29.4489C25.04 29.5858 23.9528 29.7463 22.8312 29.8477L22.8251 29.8482C22.5286 29.8751 22.2666 29.6565 22.24 29.3601C22.221 29.1507 22.325 28.9585 22.4916 28.8541" fill="#000066"/>
<path fill-rule="evenodd" clip-rule="evenodd" d="M63.7565 67.0676L58.6469 59.7363C56.7797 57.0572 54.0343 55.1148 50.8861 54.2459L50.4987 54.1389L48.9219 51.1069C48.5337 50.3603 47.8895 49.7786 47.1073 49.4684L43.5585 48.0604L43.5746 52.2699C43.5741 52.2709 43.5739 52.2716 43.5734 52.2727L35.7745 60.1318C35.7595 60.1318 35.7448 60.1329 35.7297 60.133L27.8246 52.2882L27.8084 48.077L24.2705 49.5123C23.4907 49.8286 22.851 50.4152 22.4686 51.1646L20.889 54.2598L20.5285 54.3623C17.3872 55.2553 14.6568 57.2186 12.81 59.9119L7.7569 67.2822L7.77686 72.4902L63.7765 72.2756L63.7565 67.0676Z" fill="#FB344F"/>
<path d="M20.8889 54.2598L35.7398 62.7795L46.442 56.562" stroke="#00004D" stroke-linecap="round" stroke-linejoin="round"/>
<path fill-rule="evenodd" clip-rule="evenodd" d="M31.7418 69.7949V69.7949C31.4518 69.796 31.2159 69.5617 31.2148 69.2719L31.1799 60.1769L32.2322 60.7672L32.2648 69.2679C32.2659 69.5577 32.0318 69.7938 31.7418 69.7949" fill="#00004D"/>
<path fill-rule="evenodd" clip-rule="evenodd" d="M39.7775 66.089V66.089C39.4875 66.0902 39.2516 65.8559 39.2505 65.5661L39.2321 60.7506L40.2797 60.142L40.3005 65.562C40.3016 65.8518 40.0675 66.0879 39.7775 66.089" fill="#00004D"/>
<path d="M26.4192 50.8936L27.8245 52.2882" stroke="#00004D" stroke-linecap="round" stroke-linejoin="round"/>
</g>
</svg>
