<svg width="70" height="70" viewBox="0 0 70 70" fill="none" xmlns="http://www.w3.org/2000/svg">
<rect width="70" height="70" fill="black"/>
<rect x="3.5" y="3.5" width="63" height="63" fill="#FB344F"/>
<mask id="mask0_11_319" style="mask-type:luminance" maskUnits="userSpaceOnUse" x="3" y="3" width="64" height="64">
<rect x="3.5" y="3.5" width="63" height="63" fill="white"/>
</mask>
<g mask="url(#mask0_11_319)">
<path fill-rule="evenodd" clip-rule="evenodd" d="M57.9185 59.1911C56.0614 56.5047 53.3235 54.552 50.1788 53.6711L42.8748 51.625V46.3752C45.9625 44.0557 47.9902 40.4057 48.1148 36.277C48.5464 36.4672 49.0227 36.575 49.525 36.575C51.4579 36.575 53.025 35.008 53.025 33.075C53.025 31.1419 51.4579 29.575 49.525 29.575C49.0268 29.575 48.5539 29.6805 48.125 29.8681V28.875C48.125 21.6261 42.2487 15.75 35 15.75H34.9998C27.7511 15.75 21.875 21.6261 21.875 28.875V29.8681C21.4459 29.6805 20.973 29.575 20.475 29.575C18.5419 29.575 16.975 31.1419 16.975 33.075C16.975 35.008 18.5419 36.575 20.475 36.575C20.9771 36.575 21.4534 36.4674 21.8851 36.277C22.0096 40.4057 24.0373 44.0557 27.1248 46.3752V51.625L19.821 53.6711C16.6763 54.552 13.9384 56.5047 12.0813 59.1911L7 66.542V71.75H63V66.542L57.9185 59.1911Z" fill="#FFCF83"/>
<path fill-rule="evenodd" clip-rule="evenodd" d="M34.9999 48.9999C33.3815 48.9999 31.8324 48.7052 30.4009 48.1696C32.4368 49.4702 34.8546 50.2249 37.4499 50.2249C39.3854 50.2249 41.221 49.8027 42.8749 49.0507V46.3751C40.6813 48.0229 37.9548 48.9999 34.9999 48.9999Z" fill="#F7A74F"/>
<path d="M22.3316 33.5858C22.3762 33.4232 22.4002 33.2519 22.4002 33.0751C22.4002 32.012 21.5383 31.1501 20.4752 31.1501C20.2094 31.1501 19.9561 31.204 19.7258 31.3013" stroke="#00004D" stroke-linecap="round" stroke-linejoin="round"/>
<path d="M47.6685 33.5858C47.6239 33.4232 47.6001 33.2519 47.6001 33.0751C47.6001 32.012 48.462 31.1501 49.5251 31.1501C49.7907 31.1501 50.044 31.204 50.2744 31.3013" stroke="#00004D" stroke-linecap="round" stroke-linejoin="round"/>
<path fill-rule="evenodd" clip-rule="evenodd" d="M38.5 40.9517C38.5 42.8847 36.933 44.4517 35 44.4517C33.067 44.4517 31.5 42.8847 31.5 40.9517H38.5Z" fill="black"/>
<path fill-rule="evenodd" clip-rule="evenodd" d="M42.175 33.6C42.175 34.3731 41.5482 35 40.775 35C40.0019 35 39.375 34.3731 39.375 33.6C39.375 32.8268 40.0019 32.2 40.775 32.2C41.5482 32.2 42.175 32.8268 42.175 33.6" fill="#00004D"/>
<path fill-rule="evenodd" clip-rule="evenodd" d="M30.625 33.6C30.625 34.3731 29.9981 35 29.225 35C28.4518 35 27.825 34.3731 27.825 33.6C27.825 32.8268 28.4518 32.2 29.225 32.2C29.9981 32.2 30.625 32.8268 30.625 33.6" fill="#00004D"/>
<path d="M34.9998 32.2L36.7498 38.15L34.2998 38.5" stroke="#00004D" stroke-linecap="round" stroke-linejoin="round"/>
<path fill-rule="evenodd" clip-rule="evenodd" d="M51.5122 15.7501C51.5122 12.8505 49.1616 10.5001 46.2622 10.5001C43.3628 10.5001 41.0122 12.8505 41.0122 15.7501C41.0122 15.9153 41.0208 16.0786 41.0358 16.2399C39.2081 15.3653 37.1615 14.8746 35.0001 14.8746C32.7435 14.8746 30.6135 15.4117 28.7258 16.36C28.7491 16.1598 28.7622 15.9566 28.7622 15.7501C28.7622 12.8505 26.4116 10.5001 23.5122 10.5001C20.6128 10.5001 18.2622 12.8505 18.2622 15.7501C18.2622 18.6206 20.5664 20.9516 23.4261 20.9978C21.8957 23.2422 21.0001 25.9535 21.0001 28.8746V29.6182C21.8361 29.7443 22.5742 30.1642 23.1064 30.7719L23.1398 30.7637L23.8398 27.2637H38.1713V22.2211L39.8919 27.2637H46.1602L46.8602 30.7637L46.8924 30.7735C47.4247 30.1649 48.1632 29.7445 49.0001 29.6182V28.8746C49.0001 25.9502 48.1022 23.2361 46.5688 20.9903C49.3254 20.8316 51.5122 18.5464 51.5122 15.7501" fill="#00004D"/>
<path fill-rule="evenodd" clip-rule="evenodd" d="M7 66.5419V71.75H63V66.542L57.9187 59.1912C56.0614 56.5047 53.3237 54.5521 50.1788 53.6711L45.0133 52.2239L35 64.2872L24.9867 52.2239L19.8212 53.6711C16.6763 54.5521 13.9384 56.5047 12.0813 59.1912L7 66.5419Z" fill="#000066"/>
</g>
</svg>
