<svg width="70" height="70" viewBox="0 0 70 70" fill="none" xmlns="http://www.w3.org/2000/svg">
<rect width="70" height="70" fill="black"/>
<rect x="3.5" y="3.5" width="63" height="63" fill="#80C43B"/>
<mask id="mask0_0_12" style="mask-type:luminance" maskUnits="userSpaceOnUse" x="3" y="3" width="64" height="64">
<rect x="3.5" y="3.5" width="63" height="63" fill="white"/>
</mask>
<g mask="url(#mask0_0_12)">
<path fill-rule="evenodd" clip-rule="evenodd" d="M57.9185 59.1911C56.0614 56.5047 53.3235 54.552 50.1788 53.6711L42.8748 51.625V46.3752C45.9625 44.0557 47.9902 40.4057 48.1148 36.277C48.5464 36.4672 49.0227 36.575 49.525 36.575C51.4579 36.575 53.025 35.008 53.025 33.075C53.025 31.1419 51.4579 29.575 49.525 29.575C49.0268 29.575 48.5539 29.6805 48.125 29.8681V28.875C48.125 21.6261 42.2487 15.75 35 15.75H34.9998C27.7511 15.75 21.875 21.6261 21.875 28.875V29.8681C21.4459 29.6805 20.973 29.575 20.475 29.575C18.5419 29.575 16.975 31.1419 16.975 33.075C16.975 35.008 18.5419 36.575 20.475 36.575C20.9771 36.575 21.4534 36.4674 21.8851 36.277C22.0096 40.4057 24.0373 44.0557 27.1248 46.3752V51.625L19.821 53.6711C16.6763 54.552 13.9384 56.5047 12.0813 59.1911L7 66.542V71.75H63V66.542L57.9185 59.1911Z" fill="#B5683C"/>
<path fill-rule="evenodd" clip-rule="evenodd" d="M34.9999 48.9999C33.3815 48.9999 31.8324 48.7052 30.4009 48.1696C32.4368 49.4702 34.8546 50.2249 37.4499 50.2249C39.3854 50.2249 41.221 49.8027 42.8749 49.0507V46.3751C40.6813 48.0229 37.9548 48.9999 34.9999 48.9999Z" fill="#A3420B"/>
<path d="M22.3316 33.5858C22.3762 33.4232 22.4002 33.2519 22.4002 33.0751C22.4002 32.012 21.5383 31.1501 20.4752 31.1501C20.2094 31.1501 19.9561 31.204 19.7258 31.3013" stroke="#00004D" stroke-width="2" stroke-linecap="round" stroke-linejoin="round"/>
<path d="M47.6685 33.5858C47.6239 33.4232 47.6001 33.2519 47.6001 33.0751C47.6001 32.012 48.462 31.1501 49.5251 31.1501C49.7907 31.1501 50.044 31.204 50.2744 31.3013" stroke="#00004D" stroke-width="2" stroke-linecap="round" stroke-linejoin="round"/>
<path fill-rule="evenodd" clip-rule="evenodd" d="M39.375 40.9515C39.375 43.3679 37.4162 45.3265 35 45.3265C32.5838 45.3265 30.625 43.3679 30.625 40.9515H39.375Z" fill="#AE1328"/>
<path fill-rule="evenodd" clip-rule="evenodd" d="M37.4484 44.5777C36.8171 43.9593 35.9535 43.5765 34.9999 43.5765C34.0464 43.5765 33.1827 43.9593 32.5515 44.5777C33.2503 45.0506 34.0927 45.3265 34.9999 45.3265C35.907 45.3265 36.7498 45.0506 37.4484 44.5777" fill="#FB344F"/>
<path fill-rule="evenodd" clip-rule="evenodd" d="M37.625 42.3515H32.375C31.8916 42.3515 31.5 41.9599 31.5 41.4765V40.9515H38.5V41.4765C38.5 41.9599 38.1083 42.3515 37.625 42.3515" fill="black"/>
<path d="M42.3213 33.075C42.0513 33.6931 41.4346 34.125 40.7169 34.125C39.9993 34.125 39.3826 33.6931 39.1125 33.075" stroke="#00004D" stroke-linecap="round" stroke-linejoin="round"/>
<path d="M30.7713 33.075C30.5013 33.6931 29.8846 34.125 29.1669 34.125C28.4492 34.125 27.8325 33.6931 27.5625 33.075" stroke="#00004D" stroke-linecap="round" stroke-linejoin="round"/>
<path d="M34.9725 32.2L36.6806 36.5925C37.0376 37.5103 36.3606 38.5 35.3758 38.5H34.2725" stroke="#00004D" stroke-linecap="round" stroke-linejoin="round"/>
<path fill-rule="evenodd" clip-rule="evenodd" d="M63 66.542L57.9185 59.1911C56.0616 56.5049 53.3237 54.5521 50.1788 53.6711L42.875 51.625C42.875 55.9743 39.3493 59.5 35 59.5V59.5C30.6507 59.5 27.125 55.9743 27.125 51.625L19.821 53.6711C16.6763 54.5521 13.9384 56.5049 12.0813 59.1911L7 66.542V71.75H63V66.542Z" fill="#2384F5"/>
<path fill-rule="evenodd" clip-rule="evenodd" d="M48.9372 27.0897H21.063L24.563 18.8999H45.4372L48.9372 27.0897Z" fill="#000066"/>
<path fill-rule="evenodd" clip-rule="evenodd" d="M47.25 36.7499C47.25 43.5153 41.7655 48.9999 35 48.9999C28.2345 48.9999 22.75 43.5153 22.75 36.7499V31.4998C22.75 24.7344 28.2345 19.2499 35 19.2499C41.7655 19.2499 47.25 24.7344 47.25 31.4998V36.7499ZM53.025 33.0749C53.025 25.1427 46.7138 15.0499 35 15.0499C23.2862 15.0499 16.975 25.1427 16.975 33.0749C16.975 51.3134 14.4233 56.5776 14.4233 56.5776L18.1111 59.0311C23.9615 62.9238 31.3173 62.9488 37.068 59.6107L41.5784 65.8915L55.6021 56.5997C55.6021 56.5997 53.025 52.9294 53.025 33.0749V33.0749Z" fill="#FFCA00"/>
<path d="M44.8994 50.0326C42.3659 52.5663 38.8659 54.1332 35 54.1332C27.268 54.1332 21 47.8651 21 40.1332V33.5415C21 25.8095 27.268 19.5415 35 19.5415" stroke="#00004D" stroke-linecap="round" stroke-linejoin="round"/>
<path d="M37.0681 59.6107C39.0017 58.4882 40.754 56.9855 42.2061 55.1219" stroke="#00004D" stroke-linecap="round" stroke-linejoin="round"/>
</g>
</svg>
